<svg width="64" height="64" viewBox="0 0 64 64" fill="none" xmlns="http://www.w3.org/2000/svg">
<path fill-rule="evenodd" clip-rule="evenodd" d="M64 32C64 49.6731 49.6731 64 32 64C14.3269 64 0 49.6731 0 32C0 14.3269 14.3269 0 32 0C49.6731 0 64 14.3269 64 32ZM40.1421 15.6007C38.0174 15.5041 37.3785 15.4818 32 15.4818C26.6215 15.4818 25.9826 15.5041 23.8579 15.6007C21.893 15.6898 20.827 16.0204 20.1175 16.2953C19.1777 16.663 18.5054 17.0975 17.7997 17.8033C17.0939 18.509 16.6556 19.1814 16.2916 20.1212C16.013 20.8306 15.6862 21.8966 15.597 23.8616C15.5004 25.9863 15.4781 26.6252 15.4781 32.0037C15.4781 37.3822 15.5004 38.0211 15.597 40.1457C15.6862 42.1107 16.0167 43.1767 16.2916 43.8862C16.6593 44.826 17.0939 45.4983 17.7997 46.204C18.5054 46.9098 19.1777 47.348 20.1175 47.7121C20.827 47.9906 21.893 48.3175 23.8579 48.4067C25.9826 48.5032 26.6215 48.5255 32 48.5255C37.3823 48.5255 38.0174 48.5032 40.1421 48.4067C42.107 48.3175 43.1731 47.9869 43.8826 47.7121C44.8223 47.3443 45.4946 46.9098 46.2004 46.204C46.9061 45.4983 47.3444 44.826 47.7084 43.8862C47.987 43.1767 48.3139 42.1107 48.403 40.1457C48.4996 38.0211 48.5219 37.3822 48.5219 32.0037C48.5219 26.6252 48.4996 25.9863 48.403 23.8616C48.3139 21.8966 47.9833 20.8306 47.7084 20.1212C47.3407 19.1814 46.9061 18.509 46.2004 17.8033C45.4946 17.0975 44.8223 16.6593 43.8826 16.2953C43.1731 16.0167 42.107 15.6898 40.1421 15.6007ZM23.6945 11.9753C25.8415 11.8751 26.5286 11.8528 32 11.8528C37.4714 11.8528 38.1586 11.8751 40.3055 11.9753C42.4525 12.0719 43.916 12.4137 45.1975 12.9114C46.5235 13.4277 47.6453 14.1149 48.767 15.2366C49.8888 16.3584 50.576 17.4802 51.0923 18.8062C51.59 20.0877 51.9318 21.5549 52.0283 23.6982C52.1286 25.8451 52.1509 26.5323 52.1509 32.0037C52.1509 37.4751 52.1249 38.1585 52.0283 40.3092C51.9318 42.4561 51.59 43.9196 51.0923 45.2011C50.576 46.5271 49.8888 47.6489 48.767 48.7707C47.6453 49.8925 46.5235 50.5796 45.1975 51.0959C43.916 51.5937 42.4488 51.9354 40.3055 52.032C38.1586 52.1323 37.4714 52.1546 32 52.1546C26.5286 52.1546 25.8452 52.1285 23.6945 52.032C21.5476 51.9354 20.0841 51.5937 18.8026 51.0959C17.4765 50.5796 16.3548 49.8925 15.233 48.7707C14.1112 47.6489 13.4241 46.5271 12.9078 45.2011C12.41 43.9196 12.0683 42.4524 11.9717 40.3092C11.8714 38.1622 11.8491 37.4751 11.8491 32.0037C11.8491 26.5323 11.8751 25.8488 11.9717 23.6982C12.0683 21.5512 12.41 20.0877 12.9078 18.8062C13.4241 17.4802 14.1112 16.3584 15.233 15.2366C16.3548 14.1149 17.4765 13.4277 18.8026 12.9114C20.0841 12.4137 21.5513 12.0719 23.6945 11.9753ZM32 21.6515C26.2871 21.6515 21.6552 26.2834 21.6552 31.9962C21.6552 37.7091 26.2871 42.341 32 42.341C37.7128 42.341 42.3447 37.7091 42.3447 31.9962C42.3447 26.2834 37.7128 21.6515 32 21.6515ZM32 38.7157C28.2892 38.7157 25.2843 35.707 25.2843 32C25.2843 28.2929 28.2929 25.2842 32 25.2842C35.7107 25.2842 38.7157 28.2929 38.7157 32C38.7157 35.707 35.7107 38.7157 32 38.7157ZM45.1714 21.2429C45.1714 22.5784 44.0888 23.661 42.7533 23.661C41.4178 23.661 40.3352 22.5784 40.3352 21.2429C40.3352 19.9074 41.4178 18.8248 42.7533 18.8248C44.0888 18.8248 45.1714 19.9074 45.1714 21.2429Z" fill="#F2F2F2"/>
</svg>
