<?xml version="1.0" encoding="utf-8"?>
<!-- Generator: Adobe Illustrator 26.0.3, SVG Export Plug-In . SVG Version: 6.00 Build 0)  -->
<svg version="1.1" id="Layer_1" xmlns="http://www.w3.org/2000/svg" xmlns:xlink="http://www.w3.org/1999/xlink" x="0px" y="0px"
	 viewBox="0 0 634.8 396.1" style="enable-background:new 0 0 634.8 396.1;" xml:space="preserve">
<style type="text/css">
	.st0{fill:#161616;}
	.st1{fill:#D93130;}
</style>
<g>
	<g>
		<path class="st0" d="M21.1,362.3c0,0.2-0.1,0.4-0.2,0.5s-0.4,0.1-0.7,0c-0.4-0.1-0.9-0.2-1.4-0.3s-1.1-0.3-1.8-0.4
			c-0.7-0.2-1.4-0.3-2.2-0.4c-0.8-0.1-1.7-0.2-2.5-0.2c-1.4,0-2.6,0.1-3.4,0.3c-0.9,0.2-1.5,0.5-2,0.9c-0.5,0.4-0.8,0.9-0.9,1.5
			c-0.1,0.6-0.2,1.2-0.2,1.9c0,1,0.2,1.9,0.6,2.4s1,1,1.6,1.3s1.4,0.5,2.2,0.6s1.5,0.2,2,0.2s1.2,0.1,1.8,0.2
			c0.7,0.1,1.4,0.2,2.1,0.4c0.7,0.2,1.5,0.4,2.2,0.8s1.4,0.8,2.1,1.3c0.6,0.6,1.1,1.3,1.5,2.1s0.6,1.9,0.6,3.1
			c0,1.2-0.2,2.3-0.5,3.3c-0.3,1-0.9,1.9-1.7,2.7s-1.9,1.4-3.2,1.8c-1.4,0.4-3.1,0.7-5.2,0.7c-0.7,0-1.5,0-2.3-0.1
			c-0.8-0.1-1.7-0.2-2.5-0.3c-0.8-0.1-1.6-0.3-2.3-0.5c-0.7-0.2-1.4-0.4-1.9-0.6v-2.3c0-0.3,0.1-0.5,0.2-0.6c0.2-0.1,0.4-0.1,0.6,0
			s0.6,0.2,1.1,0.3c0.5,0.2,1.1,0.3,1.8,0.5s1.4,0.3,2.3,0.4c0.8,0.1,1.7,0.2,2.6,0.2c2.8,0,4.8-0.4,5.9-1.3s1.8-2.2,1.8-3.9
			c0-1.2-0.3-2.2-1-2.9c-0.7-0.7-1.4-1.2-2.3-1.5c-0.9-0.3-1.8-0.5-2.8-0.6c-0.9-0.1-1.8-0.2-2.5-0.2C9.8,373.4,9,373.3,8,373
			c-1-0.2-1.9-0.6-2.7-1.1c-0.8-0.5-1.5-1.2-2-2.1c-0.5-0.9-0.8-2-0.8-3.5c0-1.5,0.3-2.8,0.8-3.8s1.2-1.8,2.1-2.4s1.9-1,3.1-1.2
			c1.2-0.2,2.4-0.3,3.7-0.3c1.3,0,2.5,0.1,3.6,0.2c1.1,0.2,2.1,0.4,2.9,0.6c0.9,0.2,1.7,0.5,2.4,0.8L21.1,362.3L21.1,362.3z"/>
		<path class="st0" d="M62.5,368.7c0.1,0.1,0.1,0.3,0,0.6l-5.9,15c-0.3,0.7-0.6,1.2-0.9,1.6c-0.3,0.4-0.6,0.7-0.9,0.8
			s-0.7,0.2-1.1,0.2c-0.4,0-0.8-0.1-1.1-0.3c-0.3-0.2-0.6-0.4-0.8-0.8s-0.6-0.9-0.8-1.6c-0.1-0.2-0.8-2.2-2.3-5.9l-2.3,5.9
			c-0.3,0.7-0.6,1.2-0.8,1.6c-0.2,0.3-0.5,0.6-0.9,0.8c-0.3,0.2-0.7,0.3-1.2,0.3c-0.4,0-0.8-0.1-1.1-0.3c-0.3-0.2-0.6-0.4-0.9-0.8
			c-0.3-0.3-0.6-0.9-0.9-1.6l-5.8-14.9c-0.1-0.3-0.1-0.5-0.1-0.7c0-0.2,0.3-0.2,0.6-0.2h2.7l5.5,15l5.4-15h2.9
			c0.1,0,0.3,0.1,0.4,0.2c0.1,0.1,0.1,0.3,0,0.6l-1.9,4.7l3.5,9.6l5.4-15h2.9C62.2,368.5,62.3,368.6,62.5,368.7z"/>
		<path class="st0" d="M79,363.8c0,0.6-0.2,1.1-0.6,1.5c-0.4,0.4-0.9,0.6-1.5,0.6c-0.6,0-1-0.2-1.4-0.6c-0.4-0.4-0.6-0.9-0.6-1.5
			s0.2-1.1,0.6-1.5s0.9-0.5,1.4-0.5c0.6,0,1.1,0.2,1.5,0.5C78.8,362.7,79,363.2,79,363.8z M80.4,383.5c0.2,0,0.4,0.1,0.5,0.2
			s0.2,0.3,0.2,0.6v2.3h-2.5c-0.4,0-0.7-0.1-1.1-0.2s-0.7-0.3-1-0.7c-0.3-0.3-0.6-0.7-0.8-1.2c-0.2-0.5-0.3-1.2-0.3-1.9v-14.1h2.3
			c0.3,0,0.6,0,0.7,0.2c0.1,0.1,0.2,0.3,0.2,0.7v13.1c0,0.3,0.1,0.5,0.2,0.7c0.1,0.1,0.3,0.2,0.5,0.3c0.2,0.1,0.4,0.1,0.6,0.1
			S80.2,383.5,80.4,383.5z"/>
		<path class="st0" d="M97.6,371.7v9.7c0,1,0.3,1.7,0.8,2s1.3,0.5,2.6,0.5c0.4,0,0.8,0,1.4-0.1c0.5-0.1,0.9-0.1,1-0.2
			c0.2-0.1,0.4,0,0.5,0.1s0.2,0.3,0.2,0.6v1.9c-0.2,0.1-0.6,0.3-1.3,0.4c-0.7,0.2-1.6,0.2-2.6,0.2c-0.6,0-1.3-0.1-1.9-0.3
			c-0.7-0.2-1.3-0.5-1.8-0.9c-0.5-0.4-1-1-1.3-1.6c-0.4-0.7-0.5-1.5-0.5-2.5v-18.4l2.4-0.6c0.1,0,0.3-0.1,0.3,0
			c0.1,0,0.2,0.1,0.3,0.2c0.1,0.1,0.1,0.3,0.1,0.6v5.1h5.6v2.2c0,0.4-0.1,0.6-0.2,0.8s-0.3,0.2-0.6,0.2H97.6z"/>
		<path class="st0" d="M130,383.5c0.6-0.1,1,0.1,1.1,0.7l0.3,1.8c-0.5,0.2-1.1,0.4-1.7,0.5c-0.6,0.1-1.3,0.2-2,0.3s-1.5,0.1-2.4,0.1
			c-1.7,0-3.1-0.2-4.2-0.7c-1.1-0.5-2-1.2-2.6-2c-0.6-0.9-1.1-1.8-1.3-2.8c-0.2-1-0.4-2.2-0.4-3.4c0-1.3,0.1-2.6,0.4-3.7
			s0.7-2.1,1.3-3s1.5-1.5,2.7-2c1.1-0.5,2.5-0.7,4.1-0.7c1,0,2,0.1,3.1,0.2c1.1,0.1,2.1,0.4,3,0.8v1.9c0,0.5-0.3,0.8-0.9,0.7
			c0,0-0.2,0-0.5-0.2c-0.3-0.1-0.8-0.2-1.2-0.3s-1.1-0.2-1.7-0.2c-0.6,0-1.2-0.1-1.8-0.1c-1.2,0-2.1,0.3-2.8,0.7
			c-0.7,0.4-1.2,1-1.6,1.6c-0.4,0.6-0.6,1.3-0.7,2c-0.1,0.7-0.2,1.5-0.2,2.4c0,0.9,0.1,1.6,0.2,2.2c0.1,0.6,0.3,1.2,0.7,1.9
			s0.9,1.1,1.6,1.5c0.7,0.4,1.6,0.6,2.8,0.6c0.6,0,1.1,0,1.7-0.1c0.5-0.1,1-0.1,1.5-0.2c0.4-0.1,0.8-0.1,1.1-0.2
			S129.9,383.5,130,383.5z"/>
		<path class="st0" d="M152.3,368.5c2.4,0,4.2,0.5,5.3,1.5c1.1,1,1.6,2.5,1.6,4.3v11.3c0,0.3-0.1,0.6-0.2,0.7
			c-0.1,0.2-0.3,0.2-0.6,0.2H156v-12.3c0-2.1-1.2-3.2-3.7-3.2c-2,0-3.7,0.3-5.2,1v13.5c0,0.3-0.1,0.6-0.2,0.7
			c-0.1,0.2-0.3,0.2-0.6,0.2h-2.5v-27.6h2.2c0.8,0,1.1,0.4,1.1,1.1v9.6c0.8-0.4,1.7-0.7,2.5-0.9S151.5,368.5,152.3,368.5z"/>
		<path class="st0" d="M210.9,368.7c0.1,0.1,0.1,0.3,0,0.6c-0.1,0.2-0.3,0.9-0.8,2c-0.4,1.1-1.3,3.4-2.6,6.8
			c-1.3,3.4-2.2,5.9-2.8,7.5c-0.7,1.9-1.3,3.4-1.9,4.8c-0.6,1.3-1.2,2.4-1.9,3.2c-0.7,0.8-1.5,1.4-2.4,1.8s-2,0.6-3.3,0.6
			c-0.7,0-1.4-0.1-2-0.2c-0.4-0.1-0.6-0.2-0.7-0.4s-0.1-0.4-0.1-0.7l0.5-2.1c0.3,0,0.6,0.1,1.1,0.2c0.5,0.1,0.9,0.1,1.4,0.1
			c0.6,0,1.1-0.1,1.5-0.3s0.8-0.4,1.1-0.8s0.6-0.6,0.8-1c0.2-0.3,0.5-0.7,0.8-1.2s0.7-1.5,1.3-3.1h-1c-0.3,0-0.6-0.2-0.8-0.5
			c-0.2-0.5-0.5-1.2-0.9-2.2s-0.9-2.1-1.4-3.3c-0.5-1.2-1.1-2.5-1.6-3.8c-0.6-1.3-1.1-2.5-1.6-3.6c-0.5-1.1-0.9-2-1.2-2.7
			c-0.3-0.7-0.5-1.1-0.5-1.2c-0.1-0.2-0.1-0.4-0.1-0.5c0-0.2,0.2-0.2,0.6-0.2h2.7l6.6,15.8l5.5-15.8h3
			C210.6,368.5,210.8,368.6,210.9,368.7z"/>
		<path class="st0" d="M230.4,368.2c3,0,5.2,0.8,6.5,2.4s2,3.9,2,7c0,1.5-0.2,2.8-0.4,3.9c-0.3,1.1-0.8,2.1-1.4,2.9
			c-0.7,0.8-1.5,1.4-2.6,1.8s-2.4,0.7-4,0.7c-3,0-5.2-0.8-6.5-2.4c-1.3-1.6-2-3.9-2-7c0-1.4,0.2-2.7,0.4-3.8c0.3-1.2,0.8-2.1,1.4-3
			s1.5-1.5,2.6-1.9C227.5,368.4,228.9,368.2,230.4,368.2z M230.4,384.3c1.1,0,2-0.2,2.7-0.5c0.7-0.3,1.2-0.7,1.6-1.3
			s0.7-1.3,0.8-2.1c0.1-0.8,0.2-1.8,0.2-2.9c0-0.9-0.1-1.8-0.2-2.7c-0.1-0.8-0.3-1.5-0.7-2.1c-0.4-0.6-0.9-1.1-1.6-1.4
			c-0.7-0.3-1.6-0.5-2.8-0.5c-1.1,0-1.9,0.1-2.6,0.4c-0.7,0.3-1.2,0.7-1.6,1.2c-0.4,0.5-0.7,1.2-0.8,2.1c-0.2,0.8-0.2,1.8-0.2,3
			c0,1,0.1,2,0.2,2.8c0.1,0.8,0.3,1.5,0.7,2.1c0.4,0.6,0.9,1,1.6,1.3C228.3,384.1,229.3,384.3,230.4,384.3z"/>
		<path class="st0" d="M259.8,386.9c-1.4,0-2.6-0.2-3.6-0.6c-1-0.4-1.7-1-2.3-1.6c-0.6-0.7-1-1.4-1.2-2.2s-0.4-1.6-0.4-2.3v-10.7
			c0-0.3,0.1-0.6,0.2-0.7c0.1-0.2,0.3-0.2,0.6-0.2h2.4v11.8c0,1.1,0.4,2,1.1,2.6c0.8,0.7,1.8,1,3.1,1c1.2,0,2.2-0.1,2.9-0.2
			c0.7-0.2,1.4-0.4,2.1-0.8v-13.3c0-0.3,0.1-0.6,0.2-0.7c0.2-0.2,0.4-0.2,0.6-0.2h2.4v16.3c-0.6,0.4-1.3,0.8-2.1,1.1
			c-0.8,0.3-1.7,0.5-2.7,0.8C262.3,386.8,261.1,386.9,259.8,386.9z"/>
		<path class="st0" d="M281.6,373.8c0-0.6,0.2-1.2,0.5-1.8c0.3-0.6,0.8-1.2,1.4-1.7s1.4-0.9,2.3-1.3s2.1-0.5,3.3-0.5
			c0.8,0,1.5,0,2.2,0.1c0.7,0.1,1.3,0.2,1.8,0.3c0.5,0.1,0.9,0.2,1.2,0.3c0.3,0.1,0.4,0.3,0.5,0.6c0.1,0.3,0,0.6-0.1,1
			c-0.2,0.5-0.3,1-0.5,1.4c-0.3-0.1-0.7-0.2-1.2-0.2c-0.4-0.1-1-0.2-1.6-0.2s-1.3-0.1-2.1-0.1c-0.9,0-1.6,0.1-2.2,0.3
			c-0.6,0.2-1,0.4-1.3,0.7s-0.6,0.6-0.7,0.9c-0.1,0.3-0.2,0.6-0.2,0.9v11.2c0,0.3-0.1,0.6-0.3,0.7c-0.2,0.2-0.5,0.2-0.8,0.2h-2.2
			L281.6,373.8L281.6,373.8z"/>
		<path class="st0" d="M327.4,370.2c0.7-0.3,1.5-0.6,2.4-0.8c0.9-0.2,1.8-0.4,2.9-0.6c1.1-0.2,2.3-0.2,3.7-0.2c1.6,0,2.9,0.2,4,0.7
			c1.1,0.5,1.9,1.1,2.6,2c0.6,0.9,1.1,1.8,1.3,3s0.4,2.3,0.4,3.6c0,1.2-0.1,2.4-0.3,3.5c-0.2,1.1-0.7,2.1-1.3,3
			c-0.7,0.9-1.5,1.5-2.6,2s-2.4,0.7-4,0.7c-0.9,0-1.8-0.1-2.9-0.3c-1.1-0.2-2-0.5-2.9-0.9v8.5c0,0.4-0.1,0.7-0.4,0.9
			c-0.3,0.2-0.6,0.2-1,0.2h-1.9L327.4,370.2L327.4,370.2z M330.6,382.9c0.8,0.3,1.6,0.6,2.5,1c0.9,0.3,2,0.5,3.3,0.5
			c1.1,0,2-0.2,2.7-0.7c0.7-0.5,1.2-1,1.5-1.7c0.3-0.7,0.5-1.3,0.6-2s0.2-1.4,0.2-2.2c0-0.9-0.1-1.7-0.2-2.5s-0.3-1.5-0.7-2.1
			s-0.9-1.1-1.5-1.5c-0.7-0.4-1.6-0.6-2.7-0.6c-2.3,0-4.3,0.3-5.7,1L330.6,382.9L330.6,382.9z"/>
		<path class="st0" d="M366.3,368.2c3,0,5.2,0.8,6.5,2.4s2,3.9,2,7c0,1.5-0.2,2.8-0.4,3.9c-0.3,1.1-0.8,2.1-1.4,2.9
			c-0.7,0.8-1.5,1.4-2.6,1.8s-2.4,0.7-4,0.7c-3,0-5.2-0.8-6.5-2.4c-1.3-1.6-2-3.9-2-7c0-1.4,0.2-2.7,0.4-3.8c0.3-1.2,0.8-2.1,1.4-3
			s1.5-1.5,2.6-1.9C363.4,368.4,364.8,368.2,366.3,368.2z M366.3,384.3c1.1,0,2-0.2,2.7-0.5c0.7-0.3,1.2-0.7,1.6-1.3
			s0.7-1.3,0.8-2.1c0.1-0.8,0.2-1.8,0.2-2.9c0-0.9-0.1-1.8-0.2-2.7c-0.1-0.8-0.3-1.5-0.7-2.1c-0.4-0.6-0.9-1.1-1.6-1.4
			c-0.7-0.3-1.6-0.5-2.8-0.5c-1.1,0-1.9,0.1-2.6,0.4c-0.7,0.3-1.2,0.7-1.6,1.2c-0.4,0.5-0.7,1.2-0.8,2.1c-0.2,0.8-0.2,1.8-0.2,3
			c0,1,0.1,2,0.2,2.8c0.1,0.8,0.3,1.5,0.7,2.1c0.4,0.6,0.9,1,1.6,1.3C364.3,384.1,365.2,384.3,366.3,384.3z"/>
		<path class="st0" d="M392.1,371.7v9.7c0,1,0.3,1.7,0.8,2s1.3,0.5,2.6,0.5c0.4,0,0.8,0,1.4-0.1c0.5-0.1,0.9-0.1,1-0.2
			c0.2-0.1,0.4,0,0.5,0.1s0.2,0.3,0.2,0.6v1.9c-0.2,0.1-0.6,0.3-1.3,0.4c-0.7,0.2-1.6,0.2-2.6,0.2c-0.6,0-1.3-0.1-1.9-0.3
			c-0.7-0.2-1.3-0.5-1.8-0.9c-0.5-0.4-1-1-1.3-1.6c-0.4-0.7-0.5-1.5-0.5-2.5v-18.4l2.4-0.6c0.1,0,0.3-0.1,0.3,0
			c0.1,0,0.2,0.1,0.3,0.2c0.1,0.1,0.1,0.3,0.1,0.6v5.1h5.6v2.2c0,0.4-0.1,0.6-0.2,0.8s-0.3,0.2-0.6,0.2H392.1z"/>
		<path class="st0" d="M426.7,374.5c0,1-0.2,1.8-0.4,2.4c-0.3,0.7-0.7,1.2-1.2,1.6s-1.2,0.7-1.9,0.9s-1.6,0.3-2.4,0.3h-6.4
			c0.1,1.6,0.8,2.7,1.8,3.4s2.3,1,3.8,1c0.6,0,1.1,0,1.6-0.1c0.4-0.1,0.8-0.1,1.2-0.2c0.3-0.1,0.6-0.1,0.9-0.2s0.5-0.1,0.7-0.2
			c0.2-0.1,0.5-0.1,0.7,0c0.2,0.1,0.3,0.3,0.3,0.6v1.9c-0.5,0.2-1,0.4-1.6,0.6s-1.2,0.3-1.8,0.4c-0.7,0.1-1.4,0.2-2.1,0.2
			c-0.8,0-1.7-0.1-2.7-0.3s-2-0.6-2.9-1.2s-1.7-1.5-2.3-2.6c-0.6-1.1-0.9-2.6-0.9-4.5c0-2.2,0.3-4,1-5.4c0.6-1.3,1.4-2.3,2.3-3
			c0.9-0.7,1.8-1.2,2.8-1.4c1-0.2,1.8-0.3,2.5-0.3c0.7,0,1.5,0.1,2.3,0.3c0.8,0.2,1.6,0.6,2.3,1.1s1.3,1.2,1.8,2
			S426.7,373.3,426.7,374.5z M419.3,376.8c1.6,0,2.8-0.2,3.4-0.5c0.6-0.3,1-0.9,1-1.8c0-1.2-0.4-2.1-1.1-2.8s-1.8-1-3-1
			c-1,0-1.8,0.2-2.5,0.5c-0.7,0.4-1.2,0.8-1.6,1.4s-0.7,1.2-0.9,2c-0.2,0.7-0.3,1.4-0.3,2.1L419.3,376.8L419.3,376.8z"/>
		<path class="st0" d="M442,369.6c0.8-0.3,1.8-0.5,2.9-0.8c1.1-0.2,2.3-0.3,3.6-0.3c1.5,0,2.6,0.1,3.3,0.3s1.3,0.5,1.7,0.9
			c0.4,0.4,0.7,0.8,1,1.1c0.2,0.4,0.4,0.8,0.5,1.2c0.1,0.4,0.2,0.8,0.3,1.3c0.1,0.5,0.1,1,0.1,1.5v10.8c0,0.3-0.1,0.5-0.2,0.7
			c-0.1,0.2-0.3,0.3-0.6,0.3h-2.4v-12c0-0.8-0.1-1.4-0.3-1.8c-0.2-0.5-0.6-0.8-0.9-1.1c-0.4-0.2-0.8-0.4-1.4-0.5
			c-0.5-0.1-1.1-0.1-1.7-0.1c-0.8,0-1.6,0.1-2.6,0.3c-0.9,0.2-1.7,0.4-2.2,0.6v13.6c0,0.3-0.1,0.5-0.2,0.7s-0.4,0.3-0.8,0.3h-2.3
			v-16C440.4,370.3,441.2,369.9,442,369.6z"/>
		<path class="st0" d="M473.3,371.7v9.7c0,1,0.3,1.7,0.8,2s1.3,0.5,2.6,0.5c0.4,0,0.8,0,1.4-0.1c0.5-0.1,0.9-0.1,1-0.2
			c0.2-0.1,0.4,0,0.5,0.1s0.2,0.3,0.2,0.6v1.9c-0.2,0.1-0.6,0.3-1.3,0.4c-0.7,0.2-1.6,0.2-2.6,0.2c-0.6,0-1.3-0.1-1.9-0.3
			c-0.7-0.2-1.3-0.5-1.8-0.9c-0.5-0.4-1-1-1.3-1.6c-0.4-0.7-0.5-1.5-0.5-2.5v-18.4l2.4-0.6c0.1,0,0.3-0.1,0.3,0
			c0.1,0,0.2,0.1,0.3,0.2c0.1,0.1,0.1,0.3,0.1,0.6v5.1h5.6v2.2c0,0.4-0.1,0.6-0.2,0.8s-0.3,0.2-0.6,0.2H473.3z"/>
		<path class="st0" d="M496.7,363.8c0,0.6-0.2,1.1-0.6,1.5c-0.4,0.4-0.9,0.6-1.5,0.6c-0.6,0-1-0.2-1.4-0.6c-0.4-0.4-0.6-0.9-0.6-1.5
			s0.2-1.1,0.6-1.5s0.9-0.5,1.4-0.5c0.6,0,1.1,0.2,1.5,0.5C496.5,362.7,496.7,363.2,496.7,363.8z M498.1,383.5
			c0.2,0,0.4,0.1,0.5,0.2s0.2,0.3,0.2,0.6v2.3h-2.5c-0.4,0-0.7-0.1-1.1-0.2s-0.7-0.3-1-0.7c-0.3-0.3-0.6-0.7-0.8-1.2
			c-0.2-0.5-0.3-1.2-0.3-1.9v-14.1h2.3c0.3,0,0.6,0,0.7,0.2c0.1,0.1,0.2,0.3,0.2,0.7v13.1c0,0.3,0.1,0.5,0.2,0.7
			c0.1,0.1,0.3,0.2,0.5,0.3c0.2,0.1,0.4,0.1,0.6,0.1S497.9,383.5,498.1,383.5z"/>
		<path class="st0" d="M518.8,368.2c1.1,0,2,0.1,3,0.3c0.9,0.2,1.7,0.5,2.4,1c0.7,0.5,1.3,1.1,1.7,1.8c0.4,0.8,0.6,1.8,0.6,2.9v11.1
			c-0.6,0.4-1.2,0.7-1.9,0.9c-0.7,0.3-1.6,0.5-2.5,0.7c-1,0.2-2.1,0.3-3.3,0.3c-1.2,0-2.2-0.1-3-0.3c-0.8-0.2-1.6-0.5-2.3-1
			s-1.3-1.1-1.7-1.9s-0.7-1.7-0.7-2.8c0-1.5,0.6-2.6,1.7-3.5c1.2-0.8,2.7-1.4,4.6-1.6c1.9-0.2,3.3-0.4,4.1-0.5
			c0.8-0.1,1.5-0.2,1.9-0.2v-1.7c0-0.3-0.1-0.6-0.2-0.9s-0.4-0.6-0.8-0.8s-0.8-0.5-1.4-0.6c-0.6-0.2-1.3-0.2-2.2-0.2
			c-1.1,0-2.1,0.1-3,0.3s-1.7,0.3-2.3,0.5c-0.6,0.2-0.9,0-0.9-0.5v-2.3c0.6-0.2,1.1-0.4,1.7-0.5s1.2-0.3,2-0.3
			C516.9,368.2,517.8,368.2,518.8,368.2z M523.3,378.6c-0.4,0-0.8,0.1-1.3,0.1c-0.5,0-1,0.1-1.5,0.2c-0.6,0.1-1.3,0.1-2.4,0.2
			s-1.9,0.3-2.8,0.6c-0.8,0.3-1.2,0.9-1.2,1.7s0.4,1.5,1.2,2s1.9,0.8,3.3,0.8c1.2,0,2.2-0.1,2.9-0.2s1.3-0.3,1.8-0.5L523.3,378.6
			L523.3,378.6z"/>
		<path class="st0" d="M547.6,386.6c-0.3,0.1-0.8,0.2-1.2,0.2s-1,0.1-1.5,0.1c-0.9,0-1.6-0.1-2.2-0.4s-1-0.6-1.3-1.1s-0.5-1-0.6-1.7
			c-0.1-0.7-0.2-1.4-0.2-2.1v-22.6h2.2c0.4,0,0.7,0.1,0.8,0.4c0.2,0.2,0.2,0.6,0.2,1v21.9c0,0.6,0.2,1.1,0.4,1.4
			c0.3,0.3,0.8,0.4,1.6,0.4c0.5,0,0.9,0,1.2-0.1c0.3-0.1,0.5-0.1,0.6-0.2l0.4,1.9C548.2,386.2,548,386.5,547.6,386.6z"/>
		<path class="st0" d="M588.7,368.2c3,0,5.2,0.8,6.5,2.4s2,3.9,2,7c0,1.5-0.2,2.8-0.4,3.9c-0.3,1.1-0.8,2.1-1.4,2.9
			c-0.7,0.8-1.5,1.4-2.6,1.8s-2.4,0.7-4,0.7c-3,0-5.2-0.8-6.5-2.4c-1.3-1.6-2-3.9-2-7c0-1.4,0.2-2.7,0.4-3.8c0.3-1.2,0.8-2.1,1.4-3
			s1.5-1.5,2.6-1.9C585.8,368.4,587.1,368.2,588.7,368.2z M588.7,384.3c1.1,0,2-0.2,2.7-0.5c0.7-0.3,1.2-0.7,1.6-1.3
			s0.7-1.3,0.8-2.1c0.1-0.8,0.2-1.8,0.2-2.9c0-0.9-0.1-1.8-0.2-2.7c-0.1-0.8-0.3-1.5-0.7-2.1c-0.4-0.6-0.9-1.1-1.6-1.4
			c-0.7-0.3-1.6-0.5-2.8-0.5c-1.1,0-1.9,0.1-2.6,0.4c-0.7,0.3-1.2,0.7-1.6,1.2c-0.4,0.5-0.7,1.2-0.8,2.1c-0.2,0.8-0.2,1.8-0.2,3
			c0,1,0.1,2,0.2,2.8c0.1,0.8,0.3,1.5,0.7,2.1c0.4,0.6,0.9,1,1.6,1.3C586.6,384.1,587.5,384.3,588.7,384.3z"/>
		<path class="st0" d="M612.8,369.6c0.8-0.3,1.8-0.5,2.9-0.8c1.1-0.2,2.3-0.3,3.6-0.3c1.5,0,2.6,0.1,3.3,0.3s1.3,0.5,1.7,0.9
			c0.4,0.4,0.7,0.8,1,1.1c0.2,0.4,0.4,0.8,0.5,1.2c0.1,0.4,0.2,0.8,0.3,1.3c0.1,0.5,0.1,1,0.1,1.5v10.8c0,0.3-0.1,0.5-0.2,0.7
			c-0.1,0.2-0.3,0.3-0.6,0.3H623v-12c0-0.8-0.1-1.4-0.3-1.8c-0.2-0.5-0.6-0.8-0.9-1.1c-0.4-0.2-0.8-0.4-1.4-0.5
			c-0.5-0.1-1.1-0.1-1.7-0.1c-0.8,0-1.6,0.1-2.6,0.3c-0.9,0.2-1.7,0.4-2.2,0.6v13.6c0,0.3-0.1,0.5-0.2,0.7s-0.4,0.3-0.8,0.3h-2.3
			v-16C611.2,370.3,612,369.9,612.8,369.6z"/>
	</g>
	<g>
		<g>
			<path class="st0" d="M551.5,3.3c-50.5,0-75.2,39-75.2,77.8c0,39,24.8,78.1,75.2,78.1c49.7,0,74.8-39.2,74.8-78.1
				C626.3,42.3,601.1,3.3,551.5,3.3z M551.5,131.9c-30.6,0-45.8-25.1-45.8-50.3c0-25.5,15.2-50.8,45.8-50.8
				c30.2,0,45.6,25.3,45.6,50.8C597.1,106.8,581.7,131.9,551.5,131.9z"/>
			<path class="st0" d="M102,47.3c0,43.4-46.3,44-49.8,44H30.8v65.1c0,1.5-1.3,2.8-3,2.8H5.5c-1.7,0-3-1.2-3-2.8V63.9h49.7
				c3.7,0,21.8-0.4,21.8-16.6S55.5,30.1,52.2,30.1H2.5V4.6C2.5,3.9,3.4,3,4.4,3h47.8C58.1,3,102,3.9,102,47.3z"/>
			<path class="st0" d="M232.7,159h-26.4c-0.6,0-1.7-0.5-1.8-1.1l-35-66.6h-15.9v66.1c0,0.7-0.9,1.7-2,1.7h-24.2
				c-0.9,0-1.8-0.9-1.8-1.7V64.2h28.1h21.6c6.1,0,21.8-0.7,21.8-17S179.6,30,175.2,30h-21.6h-28.1V4.9c0-0.7,0.9-1.7,1.8-1.7h47.8
				c8.3,0,49.9,0.4,49.9,44c0,22.5-12.4,34.3-27.1,39.7c9.2,20.9,27.2,49.2,36.5,69.7C234.9,157.9,234.2,159,232.7,159z"/>
			<path class="st1" d="M490.7,129.2c-68.6,0-169.5,0-169.8,0c-29,0-43.4-23.8-43.4-47.6c0-24.2,14.4-48.2,43.4-48.2
				c0.5,0,100.7,0,169.5,0c8-11.6,19.5-21,34.4-26c-62.9,0-203.1,0-203.9,0c-47.8,0-71.3,36.9-71.3,73.7c0,36.9,23.4,74,71.3,74
				c0.7,0,141.9,0,204.3,0C510.3,150.1,498.8,140.8,490.7,129.2z"/>
		</g>
		<path class="st0" d="M84.3,311.2v24c0,0.7-0.7,1.7-2,1.7H4.6c-1.1,0-2-0.9-2-1.7v-20.7c0-0.1,0-0.2,0-0.4V190.6c0-1.1,0.9-2,1.7-2
			h23.3c1.4,0,2.5,1.1,2.5,2.5v118.3h52.3C83.6,309.4,84.3,310.3,84.3,311.2z"/>
		<path class="st0" d="M232.2,336.9h-25.5c-0.6,0-1.5-0.4-1.7-1.1l-28-79c-0.4-1.1-2-1.1-2.3,0l-27.6,79c-0.2,0.7-1.1,1.1-1.8,1.1
			H120c-1.7,0-2.4-1.1-1.8-2.2l55.9-144.4c0.6-1.5,3.1-1.5,3.7,0l56.1,144.4C234.4,335.8,233.5,336.9,232.2,336.9z"/>
		<path class="st0" d="M505.5,309.7c3.1,0,5.5,2.5,5.5,5.5v19.9c0,0.7-0.7,1.7-2,1.7h-24c-36.8,0-86.6-10.7-86.6-73.9
			c0-65.5,50.4-73.9,86.6-73.9h24c1.3,0,2,0.9,2,1.7v19.8c0,3.1-2.5,5.5-5.5,5.5h-22.7v0c-32.1-1.7-55.9,11.8-55.9,46.9
			c0,45.6,38,47.5,55.9,46.7L505.5,309.7L505.5,309.7z"/>
		<path class="st0" d="M625.7,333.7c0,1.8-0.7,3.2-2.4,3.2h-86c-1.1,0-2-0.9-2-1.7V190.5c0-0.7,0.9-1.7,2-1.7h85.3
			c1.8,0,3.2,1.4,3.2,3.2v20.3c0,1.8-1.4,3.2-3.2,3.2h-55.9c-1.8,0-3.2,1.4-3.2,3.2v27.9c0,1.8,1.4,3.2,3.2,3.2h57
			c1.1,0,2,0.7,2,1.7V274c0,0.7-0.9,1.7-2,1.7h-57c-1.8,0-3.2,1.4-3.2,3.2l-0.1,27.9c0,1.8,1.4,3.2,3.2,3.2h56.6
			c1.8,0,2.4,1.4,2.4,3.2L625.7,333.7z"/>
		<g>
			<path class="st0" d="M373.6,190.8v144.6c0,0.7-0.7,1.7-2,1.7h-24.4c-0.4,0-1.5-0.2-1.7-0.5l-68.1-97.5v62.5h-28.3V190.8
				c0-0.7,0.9-1.7,1.8-1.7h24.6c0.4,0,1.5,0.2,1.7,0.6l68.2,97.5v-96.4c0-0.7,0.9-1.7,2.2-1.7h23.9
				C372.9,189.2,373.6,190.1,373.6,190.8z"/>
		</g>
	</g>
</g>
</svg>
