<?xml version="1.0" encoding="utf-8"?>
<!-- Generator: Adobe Illustrator 26.0.3, SVG Export Plug-In . SVG Version: 6.00 Build 0)  -->
<svg version="1.1" id="Layer_1" xmlns="http://www.w3.org/2000/svg" xmlns:xlink="http://www.w3.org/1999/xlink" x="0px" y="0px"
	 viewBox="0 0 1080 1080" style="enable-background:new 0 0 1080 1080;" xml:space="preserve">
<style type="text/css">
	.st0{fill:#161616;}
	.st1{opacity:0.5;clip-path:url(#SVGID_00000000216820516135622490000008856390034178098318_);}
	.st2{opacity:0.3;clip-path:url(#SVGID_00000016068059202103295650000008367180313584741786_);}
	.st3{fill:#F2F2F2;}
	.st4{fill:#D93130;}
</style>
<path class="st0" d="M540,0L540,0c298.2,0,540,241.8,540,540v0c0,298.2-241.8,540-540,540h0C241.8,1080,0,838.2,0,540v0
	C0,241.8,241.8,0,540,0z"/>
<g>
	<defs>
		<path id="SVGID_1_" d="M540.6,0L540.6,0c298.2,0,540,241.8,540,540v0c0,298.2-241.8,540-540,540h0c-298.2,0-540-241.8-540-540v0
			C0.6,241.8,242.4,0,540.6,0z"/>
	</defs>
	<clipPath id="SVGID_00000085946751594091941540000000432043132642624653_">
		<use xlink:href="#SVGID_1_"  style="overflow:visible;"/>
	</clipPath>
	<g style="opacity:0.5;clip-path:url(#SVGID_00000085946751594091941540000000432043132642624653_);">
		<g>
			<g>
				<defs>
					<rect id="SVGID_00000000906137010782567760000006369417133644198844_" x="0.6" width="1080" height="1080"/>
				</defs>
				<clipPath id="SVGID_00000107548257220697224530000009820895038489872817_">
					<use xlink:href="#SVGID_00000000906137010782567760000006369417133644198844_"  style="overflow:visible;"/>
				</clipPath>
				<g style="opacity:0.3;clip-path:url(#SVGID_00000107548257220697224530000009820895038489872817_);">
					<path class="st3" d="M651.7-60.2c-158.4,158.4-113.7,358.4,8,480.1C782,542.2,982.5,587.4,1140.9,429
						c155.9-155.9,111.9-357.7-10.4-479.9C1008.8-172.6,807.5-216.1,651.7-60.2z M1055.2,343.4c-96,96-222.6,64.9-301.5-14
						c-80.1-80.1-111.8-207.3-15.8-303.3c94.8-94.8,222.6-63.6,302.6,16.5C1119.4,121.5,1150,248.7,1055.2,343.4z"/>
					<path class="st3" d="M856.3,525.8c-215.2,215.3-532,532.1-532.9,533c-90.9,90.9-210.9,61.4-285.7-13.3
						c-75.9-75.9-106-196.5-15-287.4c1.6-1.6,316.1-316,532.1-531.9c-11.3-61.7-4.7-126.9,26.3-189.7
						C383.4,233.9-56.3,673.6-59,676.3c-150.1,150.1-107.8,339.6,7.6,454.9c115.9,115.9,305.9,158.8,456,8.7
						c2.3-2.3,445.4-445.4,641.2-641.3C983.2,529.8,918.1,536.7,856.3,525.8z"/>
				</g>
			</g>
		</g>
	</g>
</g>
<g>
	<g>
		<path class="st3" d="M153.8,754.4c0,0.3-0.1,0.5-0.3,0.7s-0.5,0.1-0.9,0c-0.5-0.1-1.2-0.3-1.8-0.4c-0.7-0.1-1.4-0.4-2.4-0.5
			c-0.9-0.3-1.8-0.4-2.9-0.5c-1.1-0.1-2.2-0.3-3.3-0.3c-1.8,0-3.4,0.1-4.5,0.4c-1.2,0.3-2,0.7-2.6,1.2c-0.7,0.5-1.1,1.2-1.2,2
			c-0.1,0.8-0.3,1.6-0.3,2.5c0,1.3,0.3,2.5,0.8,3.2s1.3,1.3,2.1,1.7c0.8,0.4,1.8,0.7,2.9,0.8c1.1,0.1,2,0.3,2.6,0.3
			c0.8,0.1,1.6,0.1,2.4,0.3c0.8,0.1,1.8,0.3,2.8,0.5c0.9,0.3,2,0.5,2.9,1.1c1.1,0.4,1.8,1.1,2.8,1.7c0.9,0.7,1.4,1.7,2,2.8
			c0.5,1.1,0.8,2.5,0.8,4.1c0,1.6-0.3,3-0.7,4.3c-0.4,1.3-1.2,2.5-2.2,3.6c-1.1,1.1-2.5,1.8-4.2,2.4c-1.8,0.5-4.1,0.9-6.7,0.9
			c-0.9,0-2,0-3-0.1c-1.2-0.1-2.2-0.3-3.3-0.4s-2.1-0.4-3-0.7c-0.9-0.3-1.8-0.5-2.5-0.8v-3c0-0.4,0.1-0.7,0.3-0.8
			c0.3-0.1,0.5-0.1,0.8,0s0.8,0.3,1.4,0.4c0.7,0.3,1.4,0.4,2.4,0.7c0.9,0.3,1.8,0.4,3,0.5c1.1,0.1,2.2,0.3,3.4,0.3
			c3.7,0,6.3-0.5,7.8-1.7s2.4-2.9,2.4-5.1c0-1.6-0.4-2.9-1.3-3.8c-0.9-0.9-1.8-1.6-3.2-2c-1.2-0.4-2.4-0.7-3.7-0.8
			c-1.2-0.1-2.4-0.3-3.3-0.3c-1.1-0.1-2.1-0.3-3.4-0.7c-1.3-0.3-2.5-0.8-3.6-1.4c-1.1-0.7-2-1.6-2.6-2.8c-0.7-1.2-1.1-2.6-1.1-4.6
			s0.4-3.7,1.1-5c0.7-1.3,1.6-2.4,2.8-3.2c1.2-0.8,2.5-1.3,4.1-1.6c1.6-0.3,3.2-0.4,4.9-0.4s3.3,0.1,4.7,0.3
			c1.4,0.3,2.8,0.5,3.8,0.8c1.2,0.3,2.2,0.7,3.2,1.1L153.8,754.4L153.8,754.4z"/>
		<path class="st3" d="M208.3,762.8c0.1,0.1,0.1,0.4,0,0.8l-7.8,19.8c-0.4,0.9-0.8,1.6-1.2,2.1c-0.4,0.5-0.8,0.9-1.2,1.1
			s-0.9,0.3-1.4,0.3c-0.5,0-1.1-0.1-1.4-0.4c-0.4-0.3-0.8-0.5-1.2-1.1c-0.4-0.5-0.7-1.2-1.2-2.1c-0.1-0.3-1.2-2.9-3-7.8l-3,7.8
			c-0.4,0.9-0.8,1.6-1.1,2.1c-0.3,0.4-0.7,0.8-1.2,1.1c-0.5,0.3-0.9,0.4-1.6,0.4c-0.5,0-1.1-0.1-1.4-0.4c-0.4-0.3-0.8-0.5-1.2-1.1
			c-0.4-0.4-0.8-1.2-1.2-2.1l-7.6-19.6c-0.1-0.4-0.1-0.7-0.1-0.9s0.4-0.3,0.8-0.3h3.6l7.2,19.8l7.1-19.8h3.8c0.1,0,0.4,0.1,0.5,0.3
			c0.1,0.1,0.1,0.4,0,0.8l-2.5,6.2l4.6,12.6l7.1-19.8h3.8C207.9,762.5,208.2,762.7,208.3,762.8z"/>
		<path class="st3" d="M230,756.4c0,0.8-0.3,1.4-0.8,2c-0.5,0.5-1.2,0.8-2,0.8c-0.7,0-1.3-0.3-2-0.8c-0.5-0.5-0.8-1.2-0.8-2
			c0-0.8,0.3-1.4,0.8-2c0.5-0.5,1.2-0.7,2-0.7c0.8,0,1.4,0.3,2,0.7C229.8,754.9,230,755.6,230,756.4z M231.9,782.3
			c0.3,0,0.5,0.1,0.7,0.3c0.1,0.1,0.3,0.4,0.3,0.8v3h-3.3c-0.5,0-0.9-0.1-1.4-0.3c-0.5-0.1-0.9-0.4-1.3-0.9
			c-0.4-0.5-0.8-0.9-1.1-1.6c-0.3-0.7-0.4-1.6-0.4-2.5v-18.6h3c0.4,0,0.8,0,0.9,0.3c0.1,0.1,0.3,0.4,0.3,0.9V781
			c0,0.4,0.1,0.7,0.3,0.9c0.1,0.1,0.4,0.3,0.7,0.4s0.5,0.1,0.8,0.1C231.5,782.4,231.6,782.3,231.9,782.3z"/>
		<path class="st3" d="M254.5,766.8v12.8c0,1.3,0.4,2.2,1.1,2.6s1.7,0.7,3.4,0.7c0.5,0,1.1,0,1.8-0.1c0.7-0.1,1.2-0.1,1.3-0.3
			c0.3-0.1,0.5,0,0.7,0.1c0.1,0.1,0.3,0.4,0.3,0.8v2.5c-0.3,0.1-0.8,0.4-1.7,0.5c-0.9,0.3-2.1,0.3-3.4,0.3c-0.8,0-1.7-0.1-2.6-0.4
			c-0.9-0.3-1.7-0.7-2.4-1.2c-0.7-0.5-1.3-1.3-1.8-2.1c-0.5-0.9-0.7-2-0.7-3.3v-24.2l3.3-0.8c0.1,0,0.4-0.1,0.5,0
			c0.1,0,0.3,0.1,0.4,0.3c0.1,0.1,0.1,0.4,0.1,0.8v6.7h7.4v2.9c0,0.5-0.1,0.8-0.3,1.1c-0.1,0.3-0.5,0.3-0.8,0.3h-6.6V766.8z"/>
		<path class="st3" d="M297.2,782.3c0.8-0.1,1.3,0.1,1.4,0.9l0.4,2.4c-0.7,0.3-1.4,0.5-2.2,0.7c-0.8,0.1-1.7,0.3-2.6,0.4
			s-2,0.1-3.2,0.1c-2.2,0-4-0.3-5.4-0.9c-1.4-0.7-2.6-1.6-3.4-2.6c-0.8-1.2-1.4-2.4-1.7-3.7c-0.3-1.3-0.5-2.9-0.5-4.5
			c0-1.7,0.1-3.4,0.5-4.9s0.9-2.8,1.7-4c0.8-1.2,2-2,3.6-2.6c1.4-0.7,3.3-0.9,5.4-0.9c1.3,0,2.6,0.1,4,0.3c1.4,0.1,2.8,0.5,4,1.1
			v2.5c0,0.7-0.4,1.1-1.2,0.9c0,0-0.3,0-0.7-0.3c-0.4-0.1-1.1-0.3-1.6-0.4c-0.5-0.1-1.3-0.3-2.2-0.3c-0.8,0-1.6-0.1-2.4-0.1
			c-1.6,0-2.8,0.4-3.7,0.9c-0.9,0.5-1.6,1.3-2.1,2.1c-0.5,0.8-0.8,1.7-0.9,2.6c-0.1,0.9-0.3,2-0.3,3.2s0,2.1,0.3,2.9
			c0.1,0.8,0.5,1.6,0.9,2.5c0.4,0.9,1.2,1.4,2.1,2c0.9,0.5,2.1,0.8,3.7,0.8c0.8,0,1.4,0,2.2-0.1c0.7-0.1,1.3-0.1,2-0.3
			c0.5-0.1,1.1-0.1,1.4-0.3C297,782.6,297.2,782.3,297.2,782.3z"/>
		<path class="st3" d="M326.5,762.5c3.2,0,5.5,0.7,7,2c1.4,1.3,2.1,3.3,2.1,5.7v14.9c0,0.4-0.1,0.8-0.3,0.9
			c-0.1,0.3-0.5,0.3-0.8,0.3h-3.3V770c0-2.8-1.6-4.2-4.9-4.2c-2.6,0-4.9,0.4-6.7,1.3v17.8c0,0.4-0.1,0.8-0.3,0.9
			c-0.1,0.3-0.4,0.3-0.8,0.3h-3.3v-36.3h2.9c1.1,0,1.4,0.5,1.4,1.4v12.6c1.1-0.5,2.1-0.9,3.3-1.2
			C324.3,762.7,325.5,762.5,326.5,762.5z"/>
		<path class="st3" d="M403.7,762.8c0.1,0.1,0.1,0.4,0,0.8c-0.1,0.3-0.4,1.2-1.1,2.6c-0.5,1.4-1.7,4.5-3.4,9
			c-1.7,4.5-2.9,7.8-3.7,9.9c-0.9,2.5-1.7,4.5-2.5,6.3c-0.8,1.7-1.6,3.2-2.5,4.2c-0.9,1.1-2,1.8-3.2,2.4c-1.2,0.5-2.6,0.8-4.3,0.8
			c-0.9,0-1.8-0.1-2.6-0.3c-0.5-0.1-0.8-0.3-0.9-0.5s-0.1-0.5-0.1-0.9l0.7-2.8c0.4,0,0.8,0.1,1.4,0.3c0.7,0.1,1.2,0.1,1.8,0.1
			c0.8,0,1.4-0.1,2-0.4c0.5-0.3,1.1-0.5,1.4-1.1c0.4-0.4,0.8-0.8,1.2-1.3c0.3-0.4,0.7-0.9,1.1-1.6s0.9-2,1.7-4.1h-1.3
			c-0.4,0-0.8-0.3-1.1-0.7c-0.3-0.7-0.7-1.6-1.2-2.9c-0.5-1.3-1.2-2.8-1.8-4.3c-0.7-1.6-1.4-3.3-2.1-5c-0.8-1.7-1.4-3.3-2.1-4.7
			c-0.7-1.4-1.2-2.6-1.6-3.6c-0.4-0.9-0.7-1.4-0.7-1.6c-0.1-0.3-0.1-0.5-0.1-0.7s0.3-0.3,0.8-0.3h3.6l8.7,20.8l7.2-20.8h4
			C403.3,762.5,403.6,762.7,403.7,762.8z"/>
		<path class="st3" d="M429.4,762.1c4,0,6.8,1.1,8.6,3.2c1.7,2.1,2.6,5.1,2.6,9.2c0,2-0.1,3.7-0.5,5.1s-1.1,2.8-1.8,3.8
			c-0.9,1.1-2,1.8-3.4,2.4c-1.4,0.5-3.2,0.9-5.3,0.9c-4,0-6.8-1.1-8.6-3.2c-1.7-2.1-2.6-5.1-2.6-9.2c0-1.8,0.1-3.6,0.5-5
			c0.4-1.4,1.1-2.8,1.8-4c0.8-1.2,2-2,3.4-2.5C425.6,762.4,427.4,762.1,429.4,762.1z M429.4,783.3c1.4,0,2.6-0.3,3.6-0.7
			s1.6-0.9,2.1-1.7c0.5-0.8,0.8-1.7,1.1-2.8c0.1-1.1,0.3-2.4,0.3-3.8c0-1.2-0.1-2.4-0.3-3.6c-0.1-1.1-0.5-2-0.9-2.8
			c-0.5-0.8-1.2-1.4-2.1-1.8c-0.9-0.4-2.1-0.7-3.7-0.7c-1.3,0-2.5,0.1-3.4,0.5s-1.6,0.9-2.1,1.6c-0.5,0.7-0.9,1.6-1.1,2.8
			c-0.1,1.2-0.3,2.4-0.3,4c0,1.3,0,2.6,0.3,3.7c0.1,1.1,0.5,2,0.9,2.8c0.5,0.8,1.2,1.3,2.1,1.7C426.8,783,427.9,783.2,429.4,783.3z"
			/>
		<path class="st3" d="M468.1,786.8c-1.8,0-3.4-0.3-4.6-0.8c-1.3-0.5-2.2-1.3-3-2.1c-0.8-0.9-1.3-1.8-1.6-2.9s-0.5-2.1-0.5-3v-14.1
			c0-0.4,0.1-0.8,0.3-0.9c0.1-0.3,0.4-0.3,0.8-0.3h3.3v15.5c0,1.4,0.5,2.6,1.4,3.4c1.1,0.9,2.4,1.3,4,1.3s2.9-0.1,3.8-0.3
			c0.9-0.1,1.8-0.5,2.8-1.1v-17.8c0-0.4,0.1-0.8,0.3-0.9c0.3-0.3,0.5-0.3,0.8-0.3h3.2v21.5c-0.8,0.5-1.7,1.1-2.8,1.4
			s-2.2,0.7-3.6,1.1C471.4,786.6,469.8,786.8,468.1,786.8z"/>
		<path class="st3" d="M496.8,769.5c0-0.8,0.1-1.6,0.7-2.4c0.4-0.8,1.1-1.6,1.8-2.2c0.8-0.7,1.8-1.2,3-1.7c1.2-0.4,2.6-0.7,4.3-0.7
			c1.1,0,2,0,2.9,0.1s1.7,0.3,2.4,0.4c0.7,0.1,1.2,0.3,1.6,0.4s0.5,0.4,0.7,0.8c0.1,0.4,0,0.8-0.1,1.3c-0.3,0.7-0.4,1.3-0.7,1.8
			c-0.4-0.1-0.9-0.3-1.6-0.3c-0.7,0-1.3-0.3-2.1-0.3c-0.8-0.1-1.7-0.1-2.8-0.1c-1.2,0-2.1,0.1-2.9,0.4c-0.8,0.3-1.3,0.5-1.8,0.9
			c-0.4,0.4-0.8,0.8-0.9,1.2c-0.1,0.4-0.3,0.8-0.3,1.2v14.7c0,0.4-0.1,0.8-0.4,0.9c-0.3,0.3-0.7,0.3-1.2,0.3h-2.9L496.8,769.5
			L496.8,769.5z"/>
		<path class="st3" d="M557.1,764.8c0.9-0.4,2-0.8,3.2-1.1c1.2-0.3,2.4-0.5,3.8-0.8c1.4-0.3,3-0.3,4.9-0.3c2.1,0,4,0.3,5.3,0.9
			c1.4,0.7,2.5,1.4,3.4,2.6c0.8,1.2,1.4,2.4,1.7,4c0.3,1.6,0.5,3,0.5,4.7c0,1.6-0.1,3.2-0.4,4.6c-0.3,1.4-0.9,2.8-1.7,4
			c-0.8,1.2-2,2-3.4,2.6c-1.4,0.7-3.2,0.9-5.3,0.9c-1.2,0-2.4-0.1-3.8-0.4c-1.3-0.3-2.6-0.7-3.8-1.2v11.2c0,0.5-0.1,0.9-0.5,1.2
			c-0.4,0.3-0.8,0.3-1.3,0.3h-2.5V764.8L557.1,764.8z M561.3,781.5c1.1,0.4,2.1,0.8,3.3,1.3c1.2,0.4,2.6,0.7,4.3,0.7
			c1.4,0,2.6-0.3,3.6-0.9c0.9-0.7,1.6-1.3,2-2.2c0.4-0.9,0.7-1.7,0.8-2.6c0.1-0.9,0.3-1.8,0.3-2.9c0-1.2-0.1-2.2-0.3-3.3
			c-0.1-1.1-0.4-2-0.9-2.8c-0.5-0.8-1.2-1.4-2-2c-0.9-0.5-2.1-0.8-3.6-0.8c-3,0-5.7,0.4-7.5,1.3L561.3,781.5L561.3,781.5z"/>
		<path class="st3" d="M608.5,762.1c4,0,6.8,1.1,8.6,3.2c1.7,2.1,2.6,5.1,2.6,9.2c0,2-0.3,3.7-0.5,5.1c-0.4,1.4-1.1,2.8-1.8,3.8
			c-0.9,1.1-2,1.8-3.4,2.4c-1.4,0.5-3.2,0.9-5.3,0.9c-4,0-6.8-1.1-8.6-3.2c-1.7-2.1-2.6-5.1-2.6-9.2c0-1.8,0.3-3.6,0.5-5
			c0.3-1.4,1.1-2.8,1.8-4c0.8-1.2,2-2,3.4-2.5C604.5,762.4,606.4,762.1,608.5,762.1z M608.5,783.3c1.4,0,2.6-0.3,3.6-0.7
			c0.9-0.4,1.6-0.9,2.1-1.7c0.5-0.8,0.9-1.7,1.1-2.8c0.1-1.1,0.3-2.4,0.3-3.8c0-1.2-0.1-2.4-0.3-3.6c-0.1-1.1-0.4-2-0.9-2.8
			c-0.5-0.8-1.2-1.4-2.1-1.8c-0.9-0.4-2.1-0.7-3.7-0.7c-1.3,0-2.5,0.1-3.4,0.5c-0.9,0.4-1.6,0.9-2.1,1.6c-0.5,0.7-0.9,1.6-1.1,2.8
			c-0.1,1.2-0.3,2.4-0.3,4c0,1.3,0,2.6,0.3,3.7c0.1,1.1,0.4,2,0.9,2.8c0.5,0.8,1.2,1.3,2.1,1.7C605.7,783,606.9,783.2,608.5,783.3z"
			/>
		<path class="st3" d="M642.4,766.8v12.8c0,1.3,0.4,2.2,1.1,2.6c0.7,0.4,1.7,0.7,3.4,0.7c0.5,0,1.1,0,1.8-0.1
			c0.7-0.1,1.2-0.1,1.3-0.3c0.3-0.1,0.5,0,0.7,0.1c0.1,0.1,0.3,0.4,0.3,0.8v2.5c-0.3,0.1-0.8,0.4-1.7,0.5c-0.9,0.3-2.1,0.3-3.4,0.3
			c-0.8,0-1.7-0.1-2.6-0.4c-0.9-0.3-1.7-0.7-2.4-1.2c-0.7-0.5-1.3-1.3-1.7-2.1c-0.5-0.9-0.7-2-0.7-3.3v-24.2l3.3-0.8
			c0.1,0,0.4-0.1,0.4,0c0.1,0,0.3,0.1,0.4,0.3c0.1,0.1,0.1,0.4,0.1,0.8v6.7h7.4v2.9c0,0.5-0.1,0.8-0.3,1.1c-0.1,0.3-0.4,0.3-0.8,0.3
			h-6.6V766.8z"/>
		<path class="st3" d="M687.9,770.4c0,1.3-0.3,2.4-0.5,3.2c-0.4,0.9-0.9,1.6-1.6,2.1s-1.6,0.9-2.5,1.2c-0.9,0.3-2.1,0.4-3.3,0.4
			h-8.4c0.1,2.1,1.1,3.6,2.4,4.5c1.3,0.9,3,1.3,5,1.3c0.8,0,1.4,0,2.1-0.1c0.5-0.1,1.1-0.1,1.6-0.3c0.4-0.1,0.8-0.1,1.2-0.3
			c0.4-0.1,0.7-0.1,0.9-0.3c0.3-0.1,0.7-0.1,0.9,0c0.3,0.1,0.4,0.4,0.4,0.8v2.5c-0.7,0.3-1.3,0.5-2.1,0.8s-1.6,0.4-2.4,0.5
			s-1.8,0.3-2.8,0.3c-1.1,0-2.2-0.1-3.6-0.4c-1.3-0.3-2.6-0.8-3.8-1.6c-1.2-0.8-2.2-2-3-3.4c-0.8-1.4-1.2-3.4-1.2-5.9
			c0-2.9,0.4-5.3,1.3-7.1c0.8-1.7,1.8-3,3-4s2.4-1.6,3.7-1.8c1.3-0.3,2.4-0.4,3.3-0.4c0.9,0,2,0.1,3,0.4c1.1,0.3,2.1,0.8,3,1.4
			c0.9,0.7,1.7,1.6,2.4,2.6C687.6,767.9,687.9,768.9,687.9,770.4z M678.1,773.5c2.1,0,3.7-0.3,4.5-0.7c0.8-0.4,1.3-1.2,1.3-2.4
			c0-1.6-0.5-2.8-1.4-3.7c-0.9-0.9-2.4-1.3-4-1.3c-1.3,0-2.4,0.3-3.3,0.7c-0.9,0.5-1.6,1.1-2.1,1.8c-0.5,0.8-0.9,1.6-1.2,2.6
			c-0.3,0.9-0.4,1.8-0.4,2.8L678.1,773.5L678.1,773.5z"/>
		<path class="st3" d="M708,764c1.1-0.4,2.4-0.7,3.8-1.1c1.4-0.3,3-0.4,4.7-0.4c2,0,3.4,0.1,4.3,0.4c0.9,0.3,1.7,0.7,2.2,1.2
			c0.5,0.5,0.9,1.1,1.3,1.4c0.3,0.5,0.5,1.1,0.7,1.6s0.3,1.1,0.4,1.7c0.1,0.7,0.1,1.3,0.1,2v14.2c0,0.4-0.1,0.7-0.3,0.9
			c-0.1,0.3-0.4,0.4-0.8,0.4h-3.2v-15.8c0-1.1-0.1-1.8-0.4-2.4c-0.3-0.7-0.7-1.1-1.2-1.4c-0.5-0.4-1.1-0.5-1.8-0.7
			c-0.7-0.1-1.4-0.1-2.2-0.1c-1.1,0-2.1,0.1-3.4,0.4c-1.2,0.3-2.2,0.5-2.9,0.8v17.9c0,0.4-0.1,0.7-0.3,0.9c-0.3,0.3-0.5,0.4-1.1,0.4
			h-3v-21.1C705.9,764.8,707,764.4,708,764z"/>
		<path class="st3" d="M749.2,766.8v12.8c0,1.3,0.4,2.2,1.1,2.6s1.7,0.7,3.4,0.7c0.5,0,1.1,0,1.8-0.1c0.7-0.1,1.2-0.1,1.3-0.3
			c0.3-0.1,0.5,0,0.7,0.1s0.3,0.4,0.3,0.8v2.5c-0.3,0.1-0.8,0.4-1.7,0.5c-0.9,0.3-2.1,0.3-3.4,0.3c-0.8,0-1.7-0.1-2.6-0.4
			c-0.9-0.3-1.7-0.7-2.4-1.2c-0.7-0.5-1.3-1.3-1.7-2.1c-0.5-0.9-0.7-2-0.7-3.3v-24.2l3.3-0.8c0.1,0,0.4-0.1,0.4,0
			c0.1,0,0.3,0.1,0.4,0.3c0.1,0.1,0.1,0.4,0.1,0.8v6.7h7.4v2.9c0,0.5-0.1,0.8-0.3,1.1c-0.1,0.3-0.4,0.3-0.8,0.3h-6.6V766.8z"/>
		<path class="st3" d="M780.1,756.4c0,0.8-0.3,1.4-0.8,2c-0.5,0.5-1.2,0.8-2,0.8c-0.7,0-1.3-0.3-2-0.8c-0.5-0.5-0.8-1.2-0.8-2
			c0-0.8,0.3-1.4,0.8-2c0.5-0.5,1.2-0.7,2-0.7s1.4,0.3,2,0.7C779.8,754.9,780.1,755.6,780.1,756.4z M781.9,782.3
			c0.3,0,0.5,0.1,0.7,0.3c0.1,0.1,0.3,0.4,0.3,0.8v3h-3.3c-0.5,0-0.9-0.1-1.4-0.3c-0.5-0.1-0.9-0.4-1.3-0.9s-0.8-0.9-1.1-1.6
			c-0.3-0.7-0.4-1.6-0.4-2.5v-18.6h3c0.4,0,0.8,0,0.9,0.3c0.1,0.1,0.3,0.4,0.3,0.9V781c0,0.4,0.1,0.7,0.3,0.9
			c0.1,0.1,0.4,0.3,0.7,0.4c0.3,0.1,0.5,0.1,0.8,0.1S781.6,782.3,781.9,782.3z"/>
		<path class="st3" d="M809.2,762.1c1.3,0,2.6,0.1,4,0.4c1.3,0.3,2.2,0.7,3.3,1.3c0.9,0.7,1.7,1.4,2.2,2.4c0.5,1.1,0.8,2.4,0.8,3.8
			v14.6c-0.8,0.5-1.6,0.9-2.6,1.2c-0.9,0.4-2.1,0.7-3.3,0.9c-1.3,0.3-2.8,0.4-4.3,0.4s-2.9-0.1-4-0.4c-1.1-0.3-2.1-0.7-3-1.3
			c-0.9-0.7-1.7-1.4-2.2-2.5c-0.5-1.1-0.9-2.2-0.9-3.7c0-2,0.8-3.4,2.2-4.6c1.6-1.1,3.6-1.8,6.1-2.1c2.5-0.3,4.3-0.5,5.4-0.7
			c1.1-0.1,2-0.3,2.5-0.3v-2.2c0-0.4-0.1-0.8-0.3-1.2c-0.3-0.4-0.5-0.8-1.1-1.1c-0.5-0.3-1.1-0.7-1.8-0.8c-0.8-0.3-1.7-0.3-2.9-0.3
			c-1.4,0-2.8,0.1-4,0.4c-1.2,0.3-2.2,0.4-3,0.7s-1.2,0-1.2-0.7v-3c0.7-0.3,1.4-0.5,2.2-0.7s1.6-0.4,2.6-0.4
			C806.7,762.1,807.8,762.1,809.2,762.1z M815.1,775.8c-0.5,0-1.1,0.1-1.7,0.1s-1.3,0.1-2,0.3c-0.7,0.1-1.7,0.1-3.2,0.3
			c-1.3,0.1-2.6,0.4-3.7,0.8c-1.1,0.4-1.6,1.2-1.6,2.2c0,1.1,0.5,2,1.6,2.6c1.1,0.7,2.5,1.1,4.3,1.1c1.6,0,2.9-0.1,3.8-0.3
			c0.9-0.1,1.7-0.4,2.4-0.7V775.8L815.1,775.8z"/>
		<path class="st3" d="M847.1,786.4c-0.4,0.1-1.1,0.3-1.6,0.3s-1.3,0.1-2,0.1c-1.2,0-2.1-0.1-2.9-0.5c-0.8-0.4-1.3-0.8-1.7-1.4
			s-0.7-1.3-0.8-2.2s-0.3-1.8-0.3-2.8V750h2.9c0.5,0,0.9,0.1,1.1,0.5c0.1,0.4,0.3,0.8,0.3,1.3v28.8c0,0.8,0.3,1.4,0.5,1.8
			c0.4,0.4,1.1,0.5,2.1,0.5c0.7,0,1.2,0,1.6-0.1c0.4-0.1,0.7-0.1,0.8-0.3l0.5,2.5C847.9,785.7,847.6,786.1,847.1,786.4z"/>
		<path class="st3" d="M901.2,762.1c4,0,6.8,1.1,8.6,3.2c1.7,2.1,2.6,5.1,2.6,9.2c0,2-0.3,3.7-0.5,5.1c-0.4,1.4-1.1,2.8-1.8,3.8
			c-0.9,1.1-2,1.8-3.4,2.4c-1.4,0.5-3.2,0.9-5.3,0.9c-4,0-6.8-1.1-8.6-3.2c-1.7-2.1-2.6-5.1-2.6-9.2c0-1.8,0.3-3.6,0.5-5
			c0.3-1.4,1.1-2.8,1.8-4c0.8-1.2,2-2,3.4-2.5C897.4,762.4,899.1,762.1,901.2,762.1z M901.2,783.3c1.4,0,2.6-0.3,3.6-0.7
			c0.9-0.4,1.6-0.9,2.1-1.7c0.5-0.8,0.9-1.7,1.1-2.8c0.1-1.1,0.3-2.4,0.3-3.8c0-1.2-0.1-2.4-0.3-3.6c-0.1-1.1-0.4-2-0.9-2.8
			c-0.5-0.8-1.2-1.4-2.1-1.8c-0.9-0.4-2.1-0.7-3.7-0.7c-1.3,0-2.5,0.1-3.4,0.5c-0.9,0.4-1.6,0.9-2.1,1.6c-0.5,0.7-0.9,1.6-1.1,2.8
			c-0.1,1.2-0.3,2.4-0.3,4c0,1.3,0,2.6,0.3,3.7c0.1,1.1,0.4,2,0.9,2.8c0.5,0.8,1.2,1.3,2.1,1.7C898.4,783,899.6,783.2,901.2,783.3z"
			/>
		<path class="st3" d="M932.9,764c1.1-0.4,2.4-0.7,3.8-1.1c1.4-0.3,3-0.4,4.7-0.4c2,0,3.4,0.1,4.3,0.4c0.9,0.3,1.7,0.7,2.2,1.2
			c0.5,0.5,0.9,1.1,1.3,1.4c0.3,0.5,0.5,1.1,0.7,1.6s0.3,1.1,0.4,1.7c0.1,0.7,0.1,1.3,0.1,2v14.2c0,0.4-0.1,0.7-0.3,0.9
			c-0.1,0.3-0.4,0.4-0.8,0.4h-3.2v-15.8c0-1.1-0.1-1.8-0.4-2.4c-0.3-0.7-0.7-1.1-1.2-1.4c-0.5-0.4-1.1-0.5-1.8-0.7
			c-0.7-0.1-1.4-0.1-2.2-0.1c-1.1,0-2.1,0.1-3.4,0.4c-1.2,0.3-2.2,0.5-2.9,0.8v17.9c0,0.4-0.1,0.7-0.3,0.9c-0.3,0.3-0.5,0.4-1.1,0.4
			h-3v-21.1C930.8,764.8,931.9,764.4,932.9,764z"/>
	</g>
	<g>
		<g>
			<path class="st3" d="M852.2,281.6c-66.5,0-99,51.4-99,102.4c0,51.4,32.7,102.8,99,102.8c65.4,0,98.5-51.5,98.5-102.8
				C950.7,333,917.7,281.6,852.2,281.6z M852.2,451c-40.3,0-60.3-33.1-60.3-66.2c0-33.6,20-66.9,60.3-66.9c39.8,0,60,33.3,60,66.9
				C912.3,417.8,892,451,852.2,451z"/>
			<path class="st3" d="M260.4,339.6c0,57.1-61.1,57.9-65.7,57.9h-28.2v85.7c0,2-1.7,3.7-4,3.7h-29.4c-2.1,0-4-1.6-4-3.7V361.6h65.4
				c4.9,0,28.7-0.5,28.7-21.9c0-21.3-24.4-22.6-28.7-22.6h-65.4v-33.6c0-1.1,1.2-2.2,2.5-2.2h62.9
				C202.5,281.2,260.4,282.4,260.4,339.6z"/>
			<path class="st3" d="M432.4,486.7h-34.8c-0.8,0-2.2-0.7-2.5-1.4l-46.1-87.7h-20.9v87.2c0,0.9-1.2,2.2-2.6,2.2h-31.9
				c-1.2,0-2.5-1.2-2.5-2.2V361.8h37h28.4c8,0,28.7-0.9,28.7-22.4c0-21.5-22.9-22.6-28.7-22.6h-28.4h-37v-33.1
				c0-0.9,1.2-2.2,2.5-2.2h62.9c10.9,0,65.7,0.5,65.7,57.9c0,29.6-16.3,45.2-35.7,52.3c12.1,27.5,35.8,64.8,48.1,91.8
				C435.3,485.2,434.4,486.7,432.4,486.7z"/>
			<path class="st4" d="M772.2,447.4c-90.3,0-223.2,0-223.6,0c-38.2,0-57.1-31.3-57.1-62.7c0-31.9,19-63.5,57.1-63.5
				c0.7,0,132.6,0,223.2,0c10.5-15.3,25.7-27.7,45.3-34.2c-83,0-267.4,0-268.5,0c-62.9,0-93.9,48.6-93.9,97
				c0,48.6,30.8,97.4,93.9,97.4c0.9,0,186.9,0,269,0C798,474.9,782.8,462.7,772.2,447.4z"/>
		</g>
		<path class="st3" d="M237,687.1v31.6c0,0.9-0.9,2.2-2.6,2.2H132.1c-1.4,0-2.6-1.2-2.6-2.2v-27.3c0-0.1,0-0.3,0-0.5V528.3
			c0-1.4,1.2-2.6,2.2-2.6h30.7c1.8,0,3.3,1.4,3.3,3.3v155.8h68.9C236.1,684.6,237,685.9,237,687.1z"/>
		<path class="st3" d="M431.8,720.9h-33.6c-0.7,0-2-0.5-2.2-1.4l-36.9-104c-0.5-1.4-2.6-1.4-3.2,0l-36.3,104
			c-0.3,0.9-1.4,1.4-2.5,1.4h-33.3c-2.2,0-3.2-1.4-2.5-2.9L355,527.9c0.7-2,4.1-2,4.9,0L433.7,718
			C434.8,719.3,433.5,720.9,431.8,720.9z"/>
		<path class="st3" d="M791.6,685.1c4.1,0,7.2,3.3,7.2,7.2v26.2c0,0.9-0.9,2.2-2.6,2.2h-31.6c-48.5,0-114-14.1-114-97.3
			c0-86.3,66.4-97.3,114-97.3h31.6c1.7,0,2.6,1.2,2.6,2.2v26.1c0,4.1-3.3,7.2-7.2,7.2h-29.9l0,0c-42.3-2.2-73.7,15.5-73.7,61.8
			c0,60,50,62.5,73.7,61.5L791.6,685.1L791.6,685.1z"/>
		<path class="st3" d="M949.9,716.7c0,2.4-0.9,4.2-3.2,4.2H833.5c-1.4,0-2.6-1.2-2.6-2.2V528.1c0-0.9,1.2-2.2,2.6-2.2h112.3
			c2.4,0,4.2,1.8,4.2,4.2v26.7c0,2.4-1.8,4.2-4.2,4.2h-73.6c-2.4,0-4.2,1.8-4.2,4.2V602c0,2.4,1.8,4.2,4.2,4.2h75.1
			c1.4,0,2.6,0.9,2.6,2.2v29.6c0,0.9-1.2,2.2-2.6,2.2h-75.1c-2.4,0-4.2,1.8-4.2,4.2l-0.1,36.7c0,2.4,1.8,4.2,4.2,4.2h74.5
			c2.4,0,3.2,1.8,3.2,4.2L949.9,716.7z"/>
		<g>
			<path class="st3" d="M618,528.5V719c0,0.9-0.9,2.2-2.6,2.2h-32.1c-0.5,0-2-0.3-2.2-0.7l-89.7-128.4v82.3H454V528.5
				c0-0.9,1.2-2.2,2.5-2.2h32.4c0.5,0,2,0.3,2.2,0.8L581,655.5V528.5c0-0.9,1.2-2.2,2.9-2.2h31.5C617,526.3,618,527.6,618,528.5z"/>
		</g>
	</g>
</g>
</svg>
