<?xml version="1.0" encoding="utf-8"?>
<!-- Generator: Adobe Illustrator 26.0.3, SVG Export Plug-In . SVG Version: 6.00 Build 0)  -->
<svg version="1.1" id="Layer_1" xmlns="http://www.w3.org/2000/svg" xmlns:xlink="http://www.w3.org/1999/xlink" x="0px" y="0px"
	 viewBox="0 0 634.8 343.7" style="enable-background:new 0 0 634.8 343.7;" xml:space="preserve">
<style type="text/css">
	.st0{fill:#161616;}
	.st1{fill:#D93130;}
</style>
<g>
	<g>
		<g>
			<path class="st0" d="M553.5,5.3c-50.5,0-75.2,39-75.2,77.8c0,39,24.8,78.1,75.2,78.1c49.7,0,74.8-39.2,74.8-78.1
				C628.3,44.3,603.1,5.3,553.5,5.3z M553.5,133.9c-30.6,0-45.8-25.1-45.8-50.3c0-25.5,15.2-50.8,45.8-50.8
				c30.2,0,45.6,25.3,45.6,50.8C599.1,108.8,583.7,133.9,553.5,133.9z"/>
			<path class="st0" d="M104,49.3c0,43.4-46.3,44-49.8,44H32.8v65.1c0,1.5-1.3,2.8-3,2.8H7.5c-1.7,0-3-1.2-3-2.8V65.9h49.7
				c3.7,0,21.8-0.4,21.8-16.6S57.5,32.1,54.2,32.1H4.5V6.6C4.5,5.9,5.4,5,6.4,5h47.8C60.1,5,104,5.9,104,49.3z"/>
			<path class="st0" d="M234.7,161h-26.4c-0.6,0-1.7-0.5-1.8-1.1l-35-66.6h-15.9v66.1c0,0.7-0.9,1.7-2,1.7h-24.2
				c-0.9,0-1.8-0.9-1.8-1.7V66.2h28.1h21.6c6.1,0,21.8-0.7,21.8-17S181.6,32,177.2,32h-21.6h-28.1V6.9c0-0.7,0.9-1.7,1.8-1.7h47.8
				c8.3,0,49.9,0.4,49.9,44c0,22.5-12.4,34.3-27.1,39.7c9.2,20.9,27.2,49.2,36.5,69.7C236.9,159.9,236.2,161,234.7,161z"/>
			<path class="st1" d="M492.7,131.2c-68.6,0-169.5,0-169.8,0c-29,0-43.4-23.8-43.4-47.6c0-24.2,14.4-48.2,43.4-48.2
				c0.5,0,100.7,0,169.5,0c8-11.6,19.5-21,34.4-26c-62.9,0-203.1,0-203.9,0c-47.8,0-71.3,36.9-71.3,73.7c0,36.9,23.4,74,71.3,74
				c0.7,0,141.9,0,204.3,0C512.3,152.1,500.8,142.8,492.7,131.2z"/>
		</g>
		<path class="st0" d="M86.3,313.2v24c0,0.7-0.7,1.7-2,1.7H6.6c-1.1,0-2-0.9-2-1.7v-20.7c0-0.1,0-0.2,0-0.4V192.6c0-1.1,0.9-2,1.7-2
			h23.3c1.4,0,2.5,1.1,2.5,2.5v118.3h52.3C85.6,311.4,86.3,312.3,86.3,313.2z"/>
		<path class="st0" d="M234.2,338.9h-25.5c-0.6,0-1.5-0.4-1.7-1.1l-28-79c-0.4-1.1-2-1.1-2.3,0l-27.6,79c-0.2,0.7-1.1,1.1-1.8,1.1
			H122c-1.7,0-2.4-1.1-1.8-2.2l55.9-144.4c0.6-1.5,3.1-1.5,3.7,0l56.1,144.4C236.4,337.8,235.5,338.9,234.2,338.9z"/>
		<path class="st0" d="M507.5,311.7c3.1,0,5.5,2.5,5.5,5.5v19.9c0,0.7-0.7,1.7-2,1.7h-24c-36.8,0-86.6-10.7-86.6-73.9
			c0-65.5,50.4-73.9,86.6-73.9h24c1.3,0,2,0.9,2,1.7v19.8c0,3.1-2.5,5.5-5.5,5.5h-22.7v0c-32.1-1.7-55.9,11.8-55.9,46.9
			c0,45.6,38,47.5,55.9,46.7L507.5,311.7L507.5,311.7z"/>
		<path class="st0" d="M627.7,335.7c0,1.8-0.7,3.2-2.4,3.2h-86c-1.1,0-2-0.9-2-1.7V192.5c0-0.7,0.9-1.7,2-1.7h85.3
			c1.8,0,3.2,1.4,3.2,3.2v20.3c0,1.8-1.4,3.2-3.2,3.2h-55.9c-1.8,0-3.2,1.4-3.2,3.2v27.9c0,1.8,1.4,3.2,3.2,3.2h57
			c1.1,0,2,0.7,2,1.7V276c0,0.7-0.9,1.7-2,1.7h-57c-1.8,0-3.2,1.4-3.2,3.2l-0.1,27.9c0,1.8,1.4,3.2,3.2,3.2h56.6
			c1.8,0,2.4,1.4,2.4,3.2L627.7,335.7z"/>
		<g>
			<path class="st0" d="M375.6,192.8v144.6c0,0.7-0.7,1.7-2,1.7h-24.4c-0.4,0-1.5-0.2-1.7-0.5l-68.1-97.5v62.5h-28.3V192.8
				c0-0.7,0.9-1.7,1.8-1.7h24.6c0.4,0,1.5,0.2,1.7,0.6l68.2,97.5v-96.4c0-0.7,0.9-1.7,2.2-1.7h23.9
				C374.9,191.2,375.6,192.1,375.6,192.8z"/>
		</g>
	</g>
</g>
</svg>
