<?xml version="1.0" encoding="utf-8"?>
<!-- Generator: Adobe Illustrator 26.0.3, SVG Export Plug-In . SVG Version: 6.00 Build 0)  -->
<svg version="1.1" id="Layer_1" xmlns="http://www.w3.org/2000/svg" xmlns:xlink="http://www.w3.org/1999/xlink" x="0px" y="0px"
	 viewBox="0 0 1080 1080" style="enable-background:new 0 0 1080 1080;" xml:space="preserve">
<style type="text/css">
	.st0{fill:#161616;}
	.st1{fill:#D93130;}
	.st2{fill:#F2F2F2;}
</style>
<g>
	<g>
		<path class="st0" d="M1346.7,702.8c0,0.2-0.1,0.4-0.2,0.5s-0.4,0.1-0.7,0c-0.4-0.1-0.9-0.2-1.4-0.3s-1.1-0.3-1.8-0.4
			c-0.7-0.2-1.4-0.3-2.2-0.4c-0.8-0.1-1.7-0.2-2.5-0.2c-1.4,0-2.6,0.1-3.4,0.3c-0.9,0.2-1.5,0.5-2,0.9c-0.5,0.4-0.8,0.9-0.9,1.5
			c-0.1,0.6-0.2,1.2-0.2,1.9c0,1,0.2,1.9,0.6,2.4s1,1,1.6,1.3s1.4,0.5,2.2,0.6s1.5,0.2,2,0.2s1.2,0.1,1.8,0.2
			c0.7,0.1,1.4,0.2,2.1,0.4c0.7,0.2,1.5,0.4,2.2,0.8s1.4,0.8,2.1,1.3c0.6,0.6,1.1,1.3,1.5,2.1s0.6,1.9,0.6,3.1
			c0,1.2-0.2,2.3-0.5,3.3c-0.3,1-0.9,1.9-1.7,2.7s-1.9,1.4-3.2,1.8c-1.4,0.4-3.1,0.7-5.2,0.7c-0.7,0-1.5,0-2.3-0.1
			c-0.8-0.1-1.7-0.2-2.5-0.3c-0.8-0.1-1.6-0.3-2.3-0.5c-0.7-0.2-1.4-0.4-1.9-0.6v-2.3c0-0.3,0.1-0.5,0.2-0.6c0.2-0.1,0.4-0.1,0.6,0
			s0.6,0.2,1.1,0.3c0.5,0.2,1.1,0.3,1.8,0.5s1.4,0.3,2.3,0.4c0.8,0.1,1.7,0.2,2.6,0.2c2.8,0,4.8-0.4,5.9-1.3s1.8-2.2,1.8-3.9
			c0-1.2-0.3-2.2-1-2.9c-0.7-0.7-1.4-1.2-2.3-1.5s-1.8-0.5-2.8-0.6c-0.9-0.1-1.8-0.2-2.5-0.2c-0.8-0.1-1.6-0.2-2.6-0.5
			c-1-0.2-1.9-0.6-2.7-1.1c-0.8-0.5-1.5-1.2-2-2.1c-0.5-0.9-0.8-2-0.8-3.5c0-1.5,0.3-2.8,0.8-3.8s1.2-1.8,2.1-2.4s1.9-1,3.1-1.2
			c1.2-0.2,2.4-0.3,3.7-0.3c1.3,0,2.5,0.1,3.6,0.2c1.1,0.2,2.1,0.4,2.9,0.6c0.9,0.2,1.7,0.5,2.4,0.8L1346.7,702.8L1346.7,702.8z"/>
		<path class="st0" d="M1388.1,709.2c0.1,0.1,0.1,0.3,0,0.6l-5.9,15c-0.3,0.7-0.6,1.2-0.9,1.6c-0.3,0.4-0.6,0.7-0.9,0.8
			s-0.7,0.2-1.1,0.2c-0.4,0-0.8-0.1-1.1-0.3c-0.3-0.2-0.6-0.4-0.8-0.8s-0.6-0.9-0.8-1.6c-0.1-0.2-0.8-2.2-2.3-5.9l-2.3,5.9
			c-0.3,0.7-0.6,1.2-0.8,1.6c-0.2,0.3-0.5,0.6-0.9,0.8c-0.3,0.2-0.7,0.3-1.2,0.3c-0.4,0-0.8-0.1-1.1-0.3c-0.3-0.2-0.6-0.4-0.9-0.8
			c-0.3-0.3-0.6-0.9-0.9-1.6l-5.8-14.9c-0.1-0.3-0.1-0.5-0.1-0.7c0-0.2,0.3-0.2,0.6-0.2h2.7l5.5,15l5.4-15h2.9
			c0.1,0,0.3,0.1,0.4,0.2c0.1,0.1,0.1,0.3,0,0.6l-1.9,4.7l3.5,9.6l5.4-15h2.9C1387.8,709,1388,709.1,1388.1,709.2z"/>
		<path class="st0" d="M1404.6,704.3c0,0.6-0.2,1.1-0.6,1.5c-0.4,0.4-0.9,0.6-1.5,0.6c-0.6,0-1-0.2-1.4-0.6
			c-0.4-0.4-0.6-0.9-0.6-1.5s0.2-1.1,0.6-1.5s0.9-0.5,1.4-0.5c0.6,0,1.1,0.2,1.5,0.5C1404.4,703.2,1404.6,703.7,1404.6,704.3z
			 M1406,724c0.2,0,0.4,0.1,0.5,0.2s0.2,0.3,0.2,0.6v2.3h-2.5c-0.4,0-0.7-0.1-1.1-0.2s-0.7-0.3-1-0.7c-0.3-0.3-0.6-0.7-0.8-1.2
			c-0.2-0.5-0.3-1.2-0.3-1.9V709h2.3c0.3,0,0.6,0,0.7,0.2c0.1,0.1,0.2,0.3,0.2,0.7V723c0,0.3,0.1,0.5,0.2,0.7
			c0.1,0.1,0.3,0.2,0.5,0.3c0.2,0.1,0.4,0.1,0.6,0.1S1405.8,724,1406,724z"/>
		<path class="st0" d="M1423.2,712.2v9.7c0,1,0.3,1.7,0.8,2s1.3,0.5,2.6,0.5c0.4,0,0.8,0,1.4-0.1c0.5-0.1,0.9-0.1,1-0.2
			c0.2-0.1,0.4,0,0.5,0.1s0.2,0.3,0.2,0.6v1.9c-0.2,0.1-0.6,0.3-1.3,0.4c-0.7,0.2-1.6,0.2-2.6,0.2c-0.6,0-1.3-0.1-1.9-0.3
			c-0.7-0.2-1.3-0.5-1.8-0.9c-0.5-0.4-1-1-1.3-1.6c-0.4-0.7-0.5-1.5-0.5-2.5v-18.4l2.4-0.6c0.1,0,0.3-0.1,0.3,0
			c0.1,0,0.2,0.1,0.3,0.2c0.1,0.1,0.1,0.3,0.1,0.6v5.1h5.6v2.2c0,0.4-0.1,0.6-0.2,0.8s-0.3,0.2-0.6,0.2H1423.2z"/>
		<path class="st0" d="M1455.6,724c0.6-0.1,1,0.1,1.1,0.7l0.3,1.8c-0.5,0.2-1.1,0.4-1.7,0.5c-0.6,0.1-1.3,0.2-2,0.3
			s-1.5,0.1-2.4,0.1c-1.7,0-3.1-0.2-4.2-0.7c-1.1-0.5-2-1.2-2.6-2c-0.6-0.9-1.1-1.8-1.3-2.8c-0.2-1-0.4-2.2-0.4-3.4
			c0-1.3,0.1-2.6,0.4-3.7s0.7-2.1,1.3-3s1.5-1.5,2.7-2c1.1-0.5,2.5-0.7,4.1-0.7c1,0,2,0.1,3.1,0.2c1.1,0.1,2.1,0.4,3,0.8v1.9
			c0,0.5-0.3,0.8-0.9,0.7c0,0-0.2,0-0.5-0.2c-0.3-0.1-0.8-0.2-1.2-0.3s-1.1-0.2-1.7-0.2c-0.6,0-1.2-0.1-1.8-0.1
			c-1.2,0-2.1,0.3-2.8,0.7c-0.7,0.4-1.2,1-1.6,1.6c-0.4,0.6-0.6,1.3-0.7,2c-0.1,0.7-0.2,1.5-0.2,2.4c0,0.9,0.1,1.6,0.2,2.2
			c0.1,0.6,0.3,1.2,0.7,1.9s0.9,1.1,1.6,1.5c0.7,0.4,1.6,0.6,2.8,0.6c0.6,0,1.1,0,1.7-0.1c0.5-0.1,1-0.1,1.5-0.2
			c0.4-0.1,0.8-0.1,1.1-0.2S1455.6,724,1455.6,724z"/>
		<path class="st0" d="M1477.9,709c2.4,0,4.2,0.5,5.3,1.5c1.1,1,1.6,2.5,1.6,4.3v11.3c0,0.3-0.1,0.6-0.2,0.7
			c-0.1,0.2-0.3,0.2-0.6,0.2h-2.4v-12.3c0-2.1-1.2-3.2-3.7-3.2c-2,0-3.7,0.3-5.2,1v13.5c0,0.3-0.1,0.6-0.2,0.7
			c-0.1,0.2-0.3,0.2-0.6,0.2h-2.5v-27.6h2.2c0.8,0,1.1,0.4,1.1,1.1v9.6c0.8-0.4,1.7-0.7,2.5-0.9S1477.1,709,1477.9,709z"/>
		<path class="st0" d="M1536.5,709.2c0.1,0.1,0.1,0.3,0,0.6c-0.1,0.2-0.3,0.9-0.8,2c-0.4,1.1-1.3,3.4-2.6,6.8
			c-1.3,3.4-2.2,5.9-2.8,7.5c-0.7,1.9-1.3,3.4-1.9,4.8c-0.6,1.3-1.2,2.4-1.9,3.2c-0.7,0.8-1.5,1.4-2.4,1.8s-2,0.6-3.3,0.6
			c-0.7,0-1.4-0.1-2-0.2c-0.4-0.1-0.6-0.2-0.7-0.4s-0.1-0.4-0.1-0.7l0.5-2.1c0.3,0,0.6,0.1,1.1,0.2c0.5,0.1,0.9,0.1,1.4,0.1
			c0.6,0,1.1-0.1,1.5-0.3s0.8-0.4,1.1-0.8s0.6-0.6,0.8-1c0.2-0.3,0.5-0.7,0.8-1.2s0.7-1.5,1.3-3.1h-1c-0.3,0-0.6-0.2-0.8-0.5
			c-0.2-0.5-0.5-1.2-0.9-2.2s-0.9-2.1-1.4-3.3c-0.5-1.2-1.1-2.5-1.6-3.8c-0.6-1.3-1.1-2.5-1.6-3.6c-0.5-1.1-0.9-2-1.2-2.7
			c-0.3-0.7-0.5-1.1-0.5-1.2c-0.1-0.2-0.1-0.4-0.1-0.5c0-0.2,0.2-0.2,0.6-0.2h2.7l6.6,15.8l5.5-15.8h3
			C1536.2,709,1536.4,709.1,1536.5,709.2z"/>
		<path class="st0" d="M1556.1,708.7c3,0,5.2,0.8,6.5,2.4s2,3.9,2,7c0,1.5-0.2,2.8-0.4,3.9c-0.3,1.1-0.8,2.1-1.4,2.9
			c-0.7,0.8-1.5,1.4-2.6,1.8s-2.4,0.7-4,0.7c-3,0-5.2-0.8-6.5-2.4c-1.3-1.6-2-3.9-2-7c0-1.4,0.2-2.7,0.4-3.8c0.3-1.2,0.8-2.1,1.4-3
			s1.5-1.5,2.6-1.9C1553.1,708.9,1554.5,708.7,1556.1,708.7z M1556.1,724.8c1.1,0,2-0.2,2.7-0.5c0.7-0.3,1.2-0.7,1.6-1.3
			s0.7-1.3,0.8-2.1c0.1-0.8,0.2-1.8,0.2-2.9c0-0.9-0.1-1.8-0.2-2.7c-0.1-0.8-0.3-1.5-0.7-2.1c-0.4-0.6-0.9-1.1-1.6-1.4
			c-0.7-0.3-1.6-0.5-2.8-0.5c-1.1,0-1.9,0.1-2.6,0.4c-0.7,0.3-1.2,0.7-1.6,1.2c-0.4,0.5-0.7,1.2-0.8,2.1c-0.2,0.8-0.2,1.8-0.2,3
			c0,1,0.1,2,0.2,2.8c0.1,0.8,0.3,1.5,0.7,2.1c0.4,0.6,0.9,1,1.6,1.3C1554,724.5,1554.9,724.7,1556.1,724.8z"/>
		<path class="st0" d="M1585.4,727.4c-1.4,0-2.6-0.2-3.6-0.6c-1-0.4-1.7-1-2.3-1.6c-0.6-0.7-1-1.4-1.2-2.2s-0.4-1.6-0.4-2.3V710
			c0-0.3,0.1-0.6,0.2-0.7c0.1-0.2,0.3-0.2,0.6-0.2h2.4v11.8c0,1.1,0.4,2,1.1,2.6c0.8,0.7,1.8,1,3.1,1c1.2,0,2.2-0.1,2.9-0.2
			c0.7-0.2,1.4-0.4,2.1-0.8V710c0-0.3,0.1-0.6,0.2-0.7c0.2-0.2,0.4-0.2,0.6-0.2h2.4v16.3c-0.6,0.4-1.3,0.8-2.1,1.1
			c-0.8,0.3-1.7,0.5-2.7,0.8C1587.9,727.3,1586.7,727.4,1585.4,727.4z"/>
		<path class="st0" d="M1607.2,714.3c0-0.6,0.2-1.2,0.5-1.8c0.3-0.6,0.8-1.2,1.4-1.7s1.4-0.9,2.3-1.3s2.1-0.5,3.3-0.5
			c0.8,0,1.5,0,2.2,0.1c0.7,0.1,1.3,0.2,1.8,0.3c0.5,0.1,0.9,0.2,1.2,0.3c0.3,0.1,0.4,0.3,0.5,0.6c0.1,0.3,0,0.6-0.1,1
			c-0.2,0.5-0.3,1-0.5,1.4c-0.3-0.1-0.7-0.2-1.2-0.2c-0.4-0.1-1-0.2-1.6-0.2s-1.3-0.1-2.1-0.1c-0.9,0-1.6,0.1-2.2,0.3
			c-0.6,0.2-1,0.4-1.3,0.7s-0.6,0.6-0.7,0.9c-0.1,0.3-0.2,0.6-0.2,0.9v11.2c0,0.3-0.1,0.6-0.3,0.7c-0.2,0.2-0.5,0.2-0.8,0.2h-2.2
			L1607.2,714.3L1607.2,714.3z"/>
		<path class="st0" d="M1653,710.7c0.7-0.3,1.5-0.6,2.4-0.8c0.9-0.2,1.8-0.4,2.9-0.6c1.1-0.2,2.3-0.2,3.7-0.2c1.6,0,2.9,0.2,4,0.7
			c1.1,0.5,1.9,1.1,2.6,2c0.6,0.9,1.1,1.8,1.3,3s0.4,2.3,0.4,3.6c0,1.2-0.1,2.4-0.3,3.5c-0.2,1.1-0.7,2.1-1.3,3
			c-0.7,0.9-1.5,1.5-2.6,2s-2.4,0.7-4,0.7c-0.9,0-1.8-0.1-2.9-0.3c-1.1-0.2-2-0.5-2.9-0.9v8.5c0,0.4-0.1,0.7-0.4,0.9
			c-0.3,0.2-0.6,0.2-1,0.2h-1.9L1653,710.7L1653,710.7z M1656.2,723.4c0.8,0.3,1.6,0.6,2.5,1c0.9,0.3,2,0.5,3.3,0.5
			c1.1,0,2-0.2,2.7-0.7c0.7-0.5,1.2-1,1.5-1.7c0.3-0.7,0.5-1.3,0.6-2s0.2-1.4,0.2-2.2c0-0.9-0.1-1.7-0.2-2.5s-0.3-1.5-0.7-2.1
			s-0.9-1.1-1.5-1.5c-0.7-0.4-1.6-0.6-2.7-0.6c-2.3,0-4.3,0.3-5.7,1L1656.2,723.4L1656.2,723.4z"/>
		<path class="st0" d="M1692,708.7c3,0,5.2,0.8,6.5,2.4s2,3.9,2,7c0,1.5-0.2,2.8-0.4,3.9c-0.3,1.1-0.8,2.1-1.4,2.9
			c-0.7,0.8-1.5,1.4-2.6,1.8s-2.4,0.7-4,0.7c-3,0-5.2-0.8-6.5-2.4c-1.3-1.6-2-3.9-2-7c0-1.4,0.2-2.7,0.4-3.8c0.3-1.2,0.8-2.1,1.4-3
			s1.5-1.5,2.6-1.9C1689.1,708.9,1690.4,708.7,1692,708.7z M1692,724.8c1.1,0,2-0.2,2.7-0.5c0.7-0.3,1.2-0.7,1.6-1.3
			s0.7-1.3,0.8-2.1c0.1-0.8,0.2-1.8,0.2-2.9c0-0.9-0.1-1.8-0.2-2.7c-0.1-0.8-0.3-1.5-0.7-2.1c-0.4-0.6-0.9-1.1-1.6-1.4
			c-0.7-0.3-1.6-0.5-2.8-0.5c-1.1,0-1.9,0.1-2.6,0.4c-0.7,0.3-1.2,0.7-1.6,1.2c-0.4,0.5-0.7,1.2-0.8,2.1c-0.2,0.8-0.2,1.8-0.2,3
			c0,1,0.1,2,0.2,2.8c0.1,0.8,0.3,1.5,0.7,2.1c0.4,0.6,0.9,1,1.6,1.3C1689.9,724.5,1690.8,724.7,1692,724.8z"/>
		<path class="st0" d="M1717.8,712.2v9.7c0,1,0.3,1.7,0.8,2s1.3,0.5,2.6,0.5c0.4,0,0.8,0,1.4-0.1c0.5-0.1,0.9-0.1,1-0.2
			c0.2-0.1,0.4,0,0.5,0.1s0.2,0.3,0.2,0.6v1.9c-0.2,0.1-0.6,0.3-1.3,0.4c-0.7,0.2-1.6,0.2-2.6,0.2c-0.6,0-1.3-0.1-1.9-0.3
			c-0.7-0.2-1.3-0.5-1.8-0.9c-0.5-0.4-1-1-1.3-1.6c-0.4-0.7-0.5-1.5-0.5-2.5v-18.4l2.4-0.6c0.1,0,0.3-0.1,0.3,0
			c0.1,0,0.2,0.1,0.3,0.2c0.1,0.1,0.1,0.3,0.1,0.6v5.1h5.6v2.2c0,0.4-0.1,0.6-0.2,0.8s-0.3,0.2-0.6,0.2H1717.8z"/>
		<path class="st0" d="M1752.3,715c0,1-0.2,1.8-0.4,2.4c-0.3,0.7-0.7,1.2-1.2,1.6s-1.2,0.7-1.9,0.9s-1.6,0.3-2.4,0.3h-6.4
			c0.1,1.6,0.8,2.7,1.8,3.4s2.3,1,3.8,1c0.6,0,1.1,0,1.6-0.1c0.4-0.1,0.8-0.1,1.2-0.2c0.3-0.1,0.6-0.1,0.9-0.2s0.5-0.1,0.7-0.2
			c0.2-0.1,0.5-0.1,0.7,0c0.2,0.1,0.3,0.3,0.3,0.6v1.9c-0.5,0.2-1,0.4-1.6,0.6s-1.2,0.3-1.8,0.4c-0.7,0.1-1.4,0.2-2.1,0.2
			c-0.8,0-1.7-0.1-2.7-0.3s-2-0.6-2.9-1.2s-1.7-1.5-2.3-2.6c-0.6-1.1-0.9-2.6-0.9-4.5c0-2.2,0.3-4,1-5.4c0.6-1.3,1.4-2.3,2.3-3
			c0.9-0.7,1.8-1.2,2.8-1.4c1-0.2,1.8-0.3,2.5-0.3c0.7,0,1.5,0.1,2.3,0.3c0.8,0.2,1.6,0.6,2.3,1.1s1.3,1.2,1.8,2
			S1752.3,713.8,1752.3,715z M1744.9,717.3c1.6,0,2.8-0.2,3.4-0.5c0.6-0.3,1-0.9,1-1.8c0-1.2-0.4-2.1-1.1-2.8s-1.8-1-3-1
			c-1,0-1.8,0.2-2.5,0.5c-0.7,0.4-1.2,0.8-1.6,1.4s-0.7,1.2-0.9,2c-0.2,0.7-0.3,1.4-0.3,2.1L1744.9,717.3L1744.9,717.3z"/>
		<path class="st0" d="M1767.6,710.1c0.8-0.3,1.8-0.5,2.9-0.8c1.1-0.2,2.3-0.3,3.6-0.3c1.5,0,2.6,0.1,3.3,0.3s1.3,0.5,1.7,0.9
			c0.4,0.4,0.7,0.8,1,1.1c0.2,0.4,0.4,0.8,0.5,1.2c0.1,0.4,0.2,0.8,0.3,1.3c0.1,0.5,0.1,1,0.1,1.5v10.8c0,0.3-0.1,0.5-0.2,0.7
			c-0.1,0.2-0.3,0.3-0.6,0.3h-2.4v-12c0-0.8-0.1-1.4-0.3-1.8c-0.2-0.5-0.6-0.8-0.9-1.1c-0.4-0.2-0.8-0.4-1.4-0.5
			c-0.5-0.1-1.1-0.1-1.7-0.1c-0.8,0-1.6,0.1-2.6,0.3c-0.9,0.2-1.7,0.4-2.2,0.6v13.6c0,0.3-0.1,0.5-0.2,0.7s-0.4,0.3-0.8,0.3h-2.3
			v-16C1766,710.7,1766.8,710.4,1767.6,710.1z"/>
		<path class="st0" d="M1798.9,712.2v9.7c0,1,0.3,1.7,0.8,2s1.3,0.5,2.6,0.5c0.4,0,0.8,0,1.4-0.1c0.5-0.1,0.9-0.1,1-0.2
			c0.2-0.1,0.4,0,0.5,0.1s0.2,0.3,0.2,0.6v1.9c-0.2,0.1-0.6,0.3-1.3,0.4c-0.7,0.2-1.6,0.2-2.6,0.2c-0.6,0-1.3-0.1-1.9-0.3
			c-0.7-0.2-1.3-0.5-1.8-0.9c-0.5-0.4-1-1-1.3-1.6c-0.4-0.7-0.5-1.5-0.5-2.5v-18.4l2.4-0.6c0.1,0,0.3-0.1,0.3,0
			c0.1,0,0.2,0.1,0.3,0.2c0.1,0.1,0.1,0.3,0.1,0.6v5.1h5.6v2.2c0,0.4-0.1,0.6-0.2,0.8s-0.3,0.2-0.6,0.2H1798.9z"/>
		<path class="st0" d="M1822.3,704.3c0,0.6-0.2,1.1-0.6,1.5c-0.4,0.4-0.9,0.6-1.5,0.6c-0.6,0-1-0.2-1.4-0.6
			c-0.4-0.4-0.6-0.9-0.6-1.5s0.2-1.1,0.6-1.5s0.9-0.5,1.4-0.5c0.6,0,1.1,0.2,1.5,0.5C1822.1,703.2,1822.3,703.7,1822.3,704.3z
			 M1823.7,724c0.2,0,0.4,0.1,0.5,0.2s0.2,0.3,0.2,0.6v2.3h-2.5c-0.4,0-0.7-0.1-1.1-0.2s-0.7-0.3-1-0.7c-0.3-0.3-0.6-0.7-0.8-1.2
			c-0.2-0.5-0.3-1.2-0.3-1.9V709h2.3c0.3,0,0.6,0,0.7,0.2c0.1,0.1,0.2,0.3,0.2,0.7V723c0,0.3,0.1,0.5,0.2,0.7
			c0.1,0.1,0.3,0.2,0.5,0.3c0.2,0.1,0.4,0.1,0.6,0.1S1823.6,724,1823.7,724z"/>
		<path class="st0" d="M1844.4,708.7c1.1,0,2,0.1,3,0.3c0.9,0.2,1.7,0.5,2.4,1c0.7,0.5,1.3,1.1,1.7,1.8c0.4,0.8,0.6,1.8,0.6,2.9
			v11.1c-0.6,0.4-1.2,0.7-1.9,0.9c-0.7,0.3-1.6,0.5-2.5,0.7c-1,0.2-2.1,0.3-3.3,0.3c-1.2,0-2.2-0.1-3-0.3c-0.8-0.2-1.6-0.5-2.3-1
			s-1.3-1.1-1.7-1.9s-0.7-1.7-0.7-2.8c0-1.5,0.6-2.6,1.7-3.5c1.2-0.8,2.7-1.4,4.6-1.6c1.9-0.2,3.3-0.4,4.1-0.5
			c0.8-0.1,1.5-0.2,1.9-0.2v-1.7c0-0.3-0.1-0.6-0.2-0.9s-0.4-0.6-0.8-0.8s-0.8-0.5-1.4-0.6c-0.6-0.2-1.3-0.2-2.2-0.2
			c-1.1,0-2.1,0.1-3,0.3s-1.7,0.3-2.3,0.5c-0.6,0.2-0.9,0-0.9-0.5v-2.3c0.6-0.2,1.1-0.4,1.7-0.5s1.2-0.3,2-0.3
			C1842.6,708.7,1843.4,708.7,1844.4,708.7z M1848.9,719.1c-0.4,0-0.8,0.1-1.3,0.1c-0.5,0-1,0.1-1.5,0.2c-0.6,0.1-1.3,0.1-2.4,0.2
			s-1.9,0.3-2.8,0.6c-0.8,0.3-1.2,0.9-1.2,1.7s0.4,1.5,1.2,2s1.9,0.8,3.3,0.8c1.2,0,2.2-0.1,2.9-0.2s1.3-0.3,1.8-0.5L1848.9,719.1
			L1848.9,719.1z"/>
		<path class="st0" d="M1873.2,727.1c-0.3,0.1-0.8,0.2-1.2,0.2s-1,0.1-1.5,0.1c-0.9,0-1.6-0.1-2.2-0.4s-1-0.6-1.3-1.1
			s-0.5-1-0.6-1.7c-0.1-0.7-0.2-1.4-0.2-2.1v-22.6h2.2c0.4,0,0.7,0.1,0.8,0.4c0.2,0.2,0.2,0.6,0.2,1v21.9c0,0.6,0.2,1.1,0.4,1.4
			c0.3,0.3,0.8,0.4,1.6,0.4c0.5,0,0.9,0,1.2-0.1c0.3-0.1,0.5-0.1,0.6-0.2l0.4,1.9C1873.8,726.6,1873.6,726.9,1873.2,727.1z"/>
		<path class="st0" d="M1914.3,708.7c3,0,5.2,0.8,6.5,2.4s2,3.9,2,7c0,1.5-0.2,2.8-0.4,3.9c-0.3,1.1-0.8,2.1-1.4,2.9
			c-0.7,0.8-1.5,1.4-2.6,1.8s-2.4,0.7-4,0.7c-3,0-5.2-0.8-6.5-2.4c-1.3-1.6-2-3.9-2-7c0-1.4,0.2-2.7,0.4-3.8c0.3-1.2,0.8-2.1,1.4-3
			s1.5-1.5,2.6-1.9C1911.4,708.9,1912.7,708.7,1914.3,708.7z M1914.3,724.8c1.1,0,2-0.2,2.7-0.5c0.7-0.3,1.2-0.7,1.6-1.3
			s0.7-1.3,0.8-2.1c0.1-0.8,0.2-1.8,0.2-2.9c0-0.9-0.1-1.8-0.2-2.7c-0.1-0.8-0.3-1.5-0.7-2.1c-0.4-0.6-0.9-1.1-1.6-1.4
			c-0.7-0.3-1.6-0.5-2.8-0.5c-1.1,0-1.9,0.1-2.6,0.4c-0.7,0.3-1.2,0.7-1.6,1.2c-0.4,0.5-0.7,1.2-0.8,2.1c-0.2,0.8-0.2,1.8-0.2,3
			c0,1,0.1,2,0.2,2.8c0.1,0.8,0.3,1.5,0.7,2.1c0.4,0.6,0.9,1,1.6,1.3C1912.2,724.5,1913.1,724.7,1914.3,724.8z"/>
		<path class="st0" d="M1938.4,710.1c0.8-0.3,1.8-0.5,2.9-0.8c1.1-0.2,2.3-0.3,3.6-0.3c1.5,0,2.6,0.1,3.3,0.3s1.3,0.5,1.7,0.9
			c0.4,0.4,0.7,0.8,1,1.1c0.2,0.4,0.4,0.8,0.5,1.2c0.1,0.4,0.2,0.8,0.3,1.3c0.1,0.5,0.1,1,0.1,1.5v10.8c0,0.3-0.1,0.5-0.2,0.7
			c-0.1,0.2-0.3,0.3-0.6,0.3h-2.4v-12c0-0.8-0.1-1.4-0.3-1.8c-0.2-0.5-0.6-0.8-0.9-1.1c-0.4-0.2-0.8-0.4-1.4-0.5
			c-0.5-0.1-1.1-0.1-1.7-0.1c-0.8,0-1.6,0.1-2.6,0.3c-0.9,0.2-1.7,0.4-2.2,0.6v13.6c0,0.3-0.1,0.5-0.2,0.7s-0.4,0.3-0.8,0.3h-2.3
			v-16C1936.8,710.7,1937.6,710.4,1938.4,710.1z"/>
	</g>
	<g>
		<g>
			<path class="st0" d="M1877.1,343.8c-50.5,0-75.2,39-75.2,77.8c0,39,24.8,78.1,75.2,78.1c49.7,0,74.8-39.1,74.8-78.1
				C1951.9,382.8,1926.8,343.8,1877.1,343.8z M1877.1,472.4c-30.6,0-45.8-25.1-45.8-50.3c0-25.5,15.2-50.8,45.8-50.8
				c30.2,0,45.6,25.3,45.6,50.8C1922.7,447.2,1907.3,472.4,1877.1,472.4z"/>
			<path class="st0" d="M1427.7,387.8c0,43.4-46.3,44-49.8,44h-21.4v65.1c0,1.5-1.3,2.8-3,2.8h-22.3c-1.7,0-3-1.2-3-2.8v-92.4h49.7
				c3.7,0,21.8-0.4,21.8-16.6s-18.5-17.2-21.8-17.2h-49.7v-25.5c0-0.8,0.9-1.7,1.8-1.7h47.8C1383.7,343.5,1427.7,344.4,1427.7,387.8
				z"/>
			<path class="st0" d="M1558.3,499.5h-26.4c-0.6,0-1.7-0.5-1.8-1.1l-35-66.6h-15.9V498c0,0.7-0.9,1.7-2,1.7H1453
				c-0.9,0-1.8-0.9-1.8-1.7v-93.3h28.1h21.6c6.1,0,21.8-0.7,21.8-17s-17.4-17.2-21.8-17.2h-21.6h-28.1v-25.1c0-0.7,0.9-1.7,1.8-1.7
				h47.8c8.3,0,49.9,0.4,49.9,44c0,22.5-12.4,34.3-27.1,39.7c9.2,20.9,27.2,49.2,36.5,69.7C1560.5,498.4,1559.8,499.5,1558.3,499.5z
				"/>
			<path class="st1" d="M1816.3,469.7c-68.6,0-169.5,0-169.8,0c-29,0-43.4-23.8-43.4-47.6c0-24.2,14.4-48.2,43.4-48.2
				c0.5,0,100.7,0,169.5,0c8-11.6,19.5-21,34.4-26c-62.9,0-203.1,0-203.9,0c-47.8,0-71.3,36.9-71.3,73.7c0,36.9,23.4,74,71.3,74
				c0.7,0,141.9,0,204.3,0C1835.9,490.6,1824.4,481.3,1816.3,469.7z"/>
		</g>
		<path class="st0" d="M1409.9,651.7v24c0,0.7-0.7,1.7-2,1.7h-77.7c-1.1,0-2-0.9-2-1.7V655c0-0.1,0-0.2,0-0.4V531.1
			c0-1.1,0.9-2,1.7-2h23.3c1.4,0,2.5,1.1,2.5,2.5v118.3h52.3C1409.2,649.8,1409.9,650.8,1409.9,651.7z"/>
		<path class="st0" d="M1557.8,677.4h-25.5c-0.6,0-1.5-0.4-1.7-1.1l-28-79c-0.4-1.1-2-1.1-2.3,0l-27.6,79c-0.2,0.7-1.1,1.1-1.8,1.1
			h-25.3c-1.7,0-2.4-1.1-1.8-2.2l55.9-144.4c0.6-1.5,3.1-1.5,3.7,0l56.1,144.4C1560.1,676.2,1559.1,677.4,1557.8,677.4z"/>
		<path class="st0" d="M1831.1,650.2c3.1,0,5.5,2.5,5.5,5.5v19.9c0,0.7-0.7,1.7-2,1.7h-24c-36.8,0-86.6-10.7-86.6-73.9
			c0-65.5,50.4-73.9,86.6-73.9h24c1.3,0,2,0.9,2,1.7v19.8c0,3.1-2.5,5.5-5.5,5.5h-22.7v0c-32.1-1.7-55.9,11.8-55.9,46.9
			c0,45.6,38,47.5,55.9,46.7L1831.1,650.2L1831.1,650.2z"/>
		<path class="st0" d="M1951.3,674.2c0,1.8-0.7,3.2-2.4,3.2h-86c-1.1,0-2-0.9-2-1.7V531c0-0.7,0.9-1.7,2-1.7h85.3
			c1.8,0,3.2,1.4,3.2,3.2v20.3c0,1.8-1.4,3.2-3.2,3.2h-55.9c-1.8,0-3.2,1.4-3.2,3.2v27.9c0,1.8,1.4,3.2,3.2,3.2h57
			c1.1,0,2,0.7,2,1.7v22.5c0,0.7-0.9,1.7-2,1.7h-57c-1.8,0-3.2,1.4-3.2,3.2l-0.1,27.9c0,1.8,1.4,3.2,3.2,3.2h56.6
			c1.8,0,2.4,1.4,2.4,3.2L1951.3,674.2z"/>
		<g>
			<path class="st0" d="M1699.2,531.3v144.6c0,0.7-0.7,1.7-2,1.7h-24.4c-0.4,0-1.5-0.2-1.7-0.5l-68.1-97.5v62.5h-28.3V531.3
				c0-0.7,0.9-1.7,1.8-1.7h24.6c0.4,0,1.5,0.2,1.7,0.6l68.2,97.5v-96.4c0-0.7,0.9-1.7,2.2-1.7h23.9
				C1698.5,529.6,1699.2,530.6,1699.2,531.3z"/>
		</g>
	</g>
</g>
<g>
	<g>
		<path class="st2" d="M246.7,702.8c0,0.2-0.1,0.4-0.2,0.5s-0.4,0.1-0.7,0c-0.4-0.1-0.9-0.2-1.4-0.3s-1.1-0.3-1.8-0.4
			c-0.7-0.2-1.4-0.3-2.2-0.4c-0.8-0.1-1.7-0.2-2.5-0.2c-1.4,0-2.6,0.1-3.4,0.3c-0.9,0.2-1.5,0.5-2,0.9c-0.5,0.4-0.8,0.9-0.9,1.5
			c-0.1,0.6-0.2,1.2-0.2,1.9c0,1,0.2,1.9,0.6,2.4s1,1,1.6,1.3s1.4,0.5,2.2,0.6s1.5,0.2,2,0.2c0.6,0.1,1.2,0.1,1.8,0.2
			s1.4,0.2,2.1,0.4c0.7,0.2,1.5,0.4,2.2,0.8c0.8,0.3,1.4,0.8,2.1,1.3s1.1,1.3,1.5,2.1s0.6,1.9,0.6,3.1c0,1.2-0.2,2.3-0.5,3.3
			c-0.3,1-0.9,1.9-1.7,2.7c-0.8,0.8-1.9,1.4-3.2,1.8c-1.4,0.4-3.1,0.7-5.1,0.7c-0.7,0-1.5,0-2.3-0.1c-0.9-0.1-1.7-0.2-2.5-0.3
			c-0.8-0.1-1.6-0.3-2.3-0.5c-0.7-0.2-1.4-0.4-1.9-0.6v-2.3c0-0.3,0.1-0.5,0.2-0.6c0.2-0.1,0.4-0.1,0.6,0s0.6,0.2,1.1,0.3
			c0.5,0.2,1.1,0.3,1.8,0.5s1.4,0.3,2.3,0.4c0.8,0.1,1.7,0.2,2.6,0.2c2.8,0,4.8-0.4,5.9-1.3s1.8-2.2,1.8-3.9c0-1.2-0.3-2.2-1-2.9
			c-0.7-0.7-1.4-1.2-2.4-1.5c-0.9-0.3-1.8-0.5-2.8-0.6c-0.9-0.1-1.8-0.2-2.5-0.2c-0.8-0.1-1.6-0.2-2.6-0.5c-1-0.2-1.9-0.6-2.7-1.1
			c-0.8-0.5-1.5-1.2-2-2.1c-0.5-0.9-0.8-2-0.8-3.5c0-1.5,0.3-2.8,0.8-3.8s1.2-1.8,2.1-2.4s1.9-1,3.1-1.2c1.2-0.2,2.4-0.3,3.7-0.3
			c1.3,0,2.5,0.1,3.6,0.2c1.1,0.2,2.1,0.4,2.9,0.6c0.9,0.2,1.7,0.5,2.4,0.8L246.7,702.8L246.7,702.8z"/>
		<path class="st2" d="M288.1,709.2c0.1,0.1,0.1,0.3,0,0.6l-5.9,15c-0.3,0.7-0.6,1.2-0.9,1.6c-0.3,0.4-0.6,0.7-0.9,0.8
			s-0.7,0.2-1.1,0.2c-0.4,0-0.8-0.1-1.1-0.3c-0.3-0.2-0.6-0.4-0.9-0.8s-0.5-0.9-0.9-1.6c-0.1-0.2-0.9-2.2-2.3-5.9l-2.3,5.9
			c-0.3,0.7-0.6,1.2-0.8,1.6c-0.2,0.3-0.5,0.6-0.9,0.8c-0.4,0.2-0.7,0.3-1.2,0.3c-0.4,0-0.8-0.1-1.1-0.3c-0.3-0.2-0.6-0.4-0.9-0.8
			c-0.3-0.3-0.6-0.9-0.9-1.6l-5.8-14.9c-0.1-0.3-0.1-0.5-0.1-0.7c0-0.2,0.3-0.2,0.6-0.2h2.7l5.5,15l5.4-15h2.9
			c0.1,0,0.3,0.1,0.4,0.2c0.1,0.1,0.1,0.3,0,0.6l-1.9,4.7l3.5,9.6l5.4-15h2.9C287.8,709,288,709.1,288.1,709.2z"/>
		<path class="st2" d="M304.6,704.3c0,0.6-0.2,1.1-0.6,1.5c-0.4,0.4-0.9,0.6-1.5,0.6c-0.5,0-1-0.2-1.5-0.6c-0.4-0.4-0.6-0.9-0.6-1.5
			s0.2-1.1,0.6-1.5s0.9-0.5,1.5-0.5c0.6,0,1.1,0.2,1.5,0.5C304.4,703.2,304.6,703.7,304.6,704.3z M306,724c0.2,0,0.4,0.1,0.5,0.2
			c0.1,0.1,0.2,0.3,0.2,0.6v2.3h-2.5c-0.4,0-0.7-0.1-1.1-0.2s-0.7-0.3-1-0.7s-0.6-0.7-0.8-1.2c-0.2-0.5-0.3-1.2-0.3-1.9V709h2.3
			c0.3,0,0.6,0,0.7,0.2c0.1,0.1,0.2,0.3,0.2,0.7V723c0,0.3,0.1,0.5,0.2,0.7c0.1,0.1,0.3,0.2,0.5,0.3s0.4,0.1,0.6,0.1
			S305.8,724,306,724z"/>
		<path class="st2" d="M323.2,712.2v9.7c0,1,0.3,1.7,0.8,2s1.3,0.5,2.6,0.5c0.4,0,0.8,0,1.4-0.1c0.5-0.1,0.9-0.1,1-0.2
			c0.2-0.1,0.4,0,0.5,0.1s0.2,0.3,0.2,0.6v1.9c-0.2,0.1-0.6,0.3-1.3,0.4c-0.7,0.2-1.6,0.2-2.6,0.2c-0.6,0-1.3-0.1-2-0.3
			c-0.7-0.2-1.3-0.5-1.8-0.9c-0.5-0.4-1-1-1.4-1.6c-0.4-0.7-0.5-1.5-0.5-2.5v-18.4l2.5-0.6c0.1,0,0.3-0.1,0.4,0
			c0.1,0,0.2,0.1,0.3,0.2c0.1,0.1,0.1,0.3,0.1,0.6v5.1h5.6v2.2c0,0.4-0.1,0.6-0.2,0.8c-0.1,0.2-0.4,0.2-0.6,0.2H323.2z"/>
		<path class="st2" d="M355.6,724c0.6-0.1,1,0.1,1.1,0.7l0.3,1.8c-0.5,0.2-1.1,0.4-1.7,0.5c-0.6,0.1-1.3,0.2-2,0.3
			c-0.7,0.1-1.5,0.1-2.4,0.1c-1.7,0-3-0.2-4.1-0.7c-1.1-0.5-2-1.2-2.6-2c-0.6-0.9-1.1-1.8-1.3-2.8c-0.2-1-0.4-2.2-0.4-3.4
			c0-1.3,0.1-2.6,0.4-3.7s0.7-2.1,1.3-3c0.6-0.9,1.5-1.5,2.7-2c1.1-0.5,2.5-0.7,4.1-0.7c1,0,2,0.1,3,0.2c1.1,0.1,2.1,0.4,3,0.8v1.9
			c0,0.5-0.3,0.8-0.9,0.7c0,0-0.2,0-0.5-0.2c-0.3-0.1-0.8-0.2-1.2-0.3s-1-0.2-1.7-0.2c-0.6,0-1.2-0.1-1.8-0.1
			c-1.2,0-2.1,0.3-2.8,0.7c-0.7,0.4-1.2,1-1.6,1.6s-0.6,1.3-0.7,2c-0.1,0.7-0.2,1.5-0.2,2.4c0,0.9,0,1.6,0.2,2.2
			c0.1,0.6,0.4,1.2,0.7,1.9s0.9,1.1,1.6,1.5c0.7,0.4,1.6,0.6,2.8,0.6c0.6,0,1.1,0,1.7-0.1c0.5-0.1,1-0.1,1.5-0.2
			c0.4-0.1,0.8-0.1,1.1-0.2S355.6,724,355.6,724z"/>
		<path class="st2" d="M377.9,709c2.4,0,4.2,0.5,5.3,1.5c1.1,1,1.6,2.5,1.6,4.3v11.3c0,0.3-0.1,0.6-0.2,0.7
			c-0.1,0.2-0.4,0.2-0.6,0.2h-2.5v-12.3c0-2.1-1.2-3.2-3.7-3.2c-2,0-3.7,0.3-5.1,1v13.5c0,0.3-0.1,0.6-0.2,0.7
			c-0.1,0.2-0.3,0.2-0.6,0.2h-2.5v-27.6h2.2c0.8,0,1.1,0.4,1.1,1.1v9.6c0.8-0.4,1.6-0.7,2.5-0.9C376.2,709.1,377.1,709,377.9,709z"
			/>
		<path class="st2" d="M436.5,709.2c0.1,0.1,0.1,0.3,0,0.6c-0.1,0.2-0.3,0.9-0.8,2c-0.4,1.1-1.3,3.4-2.6,6.8
			c-1.3,3.4-2.2,5.9-2.8,7.5c-0.7,1.9-1.3,3.4-1.9,4.8c-0.6,1.3-1.2,2.4-1.9,3.2c-0.7,0.8-1.5,1.4-2.4,1.8c-0.9,0.4-2,0.6-3.3,0.6
			c-0.7,0-1.4-0.1-2-0.2c-0.4-0.1-0.6-0.2-0.7-0.4s-0.1-0.4-0.1-0.7l0.5-2.1c0.3,0,0.6,0.1,1.1,0.2c0.5,0.1,0.9,0.1,1.4,0.1
			c0.6,0,1.1-0.1,1.5-0.3s0.8-0.4,1.1-0.8c0.3-0.3,0.6-0.6,0.9-1c0.2-0.3,0.5-0.7,0.8-1.2s0.7-1.5,1.3-3.1h-1
			c-0.3,0-0.6-0.2-0.8-0.5c-0.2-0.5-0.5-1.2-0.9-2.2s-0.9-2.1-1.4-3.3c-0.5-1.2-1.1-2.5-1.6-3.8c-0.6-1.3-1.1-2.5-1.6-3.6
			s-0.9-2-1.2-2.7c-0.3-0.7-0.5-1.1-0.5-1.2c-0.1-0.2-0.1-0.4-0.1-0.5s0.2-0.2,0.6-0.2h2.7l6.6,15.8l5.5-15.8h3
			C436.2,709,436.4,709.1,436.5,709.2z"/>
		<path class="st2" d="M456,708.7c3,0,5.2,0.8,6.5,2.4c1.3,1.6,2,3.9,2,7c0,1.5-0.1,2.8-0.4,3.9c-0.3,1.1-0.8,2.1-1.4,2.9
			c-0.7,0.8-1.5,1.4-2.6,1.8s-2.4,0.7-4,0.7c-3,0-5.2-0.8-6.5-2.4c-1.3-1.6-2-3.9-2-7c0-1.4,0.1-2.7,0.4-3.8s0.8-2.1,1.4-3
			s1.5-1.5,2.6-1.9C453.1,708.9,454.5,708.7,456,708.7z M456,724.8c1.1,0,2-0.2,2.7-0.5c0.7-0.3,1.2-0.7,1.6-1.3
			c0.4-0.6,0.6-1.3,0.8-2.1c0.1-0.8,0.2-1.8,0.2-2.9c0-0.9-0.1-1.8-0.2-2.7c-0.1-0.8-0.4-1.5-0.7-2.1c-0.4-0.6-0.9-1.1-1.6-1.4
			c-0.7-0.3-1.6-0.5-2.8-0.5c-1,0-1.9,0.1-2.6,0.4c-0.7,0.3-1.2,0.7-1.6,1.2c-0.4,0.5-0.7,1.2-0.8,2.1s-0.2,1.8-0.2,3
			c0,1,0,2,0.2,2.8c0.1,0.8,0.4,1.5,0.7,2.1c0.4,0.6,0.9,1,1.6,1.3C454,724.5,454.9,724.7,456,724.8z"/>
		<path class="st2" d="M485.4,727.4c-1.4,0-2.6-0.2-3.5-0.6c-1-0.4-1.7-1-2.3-1.6c-0.6-0.7-1-1.4-1.2-2.2s-0.4-1.6-0.4-2.3V710
			c0-0.3,0.1-0.6,0.2-0.7c0.1-0.2,0.3-0.2,0.6-0.2h2.5v11.8c0,1.1,0.4,2,1.1,2.6c0.8,0.7,1.8,1,3,1c1.2,0,2.2-0.1,2.9-0.2
			s1.4-0.4,2.1-0.8V710c0-0.3,0.1-0.6,0.2-0.7c0.2-0.2,0.4-0.2,0.6-0.2h2.4v16.3c-0.6,0.4-1.3,0.8-2.1,1.1s-1.7,0.5-2.7,0.8
			C487.9,727.3,486.7,727.4,485.4,727.4z"/>
		<path class="st2" d="M507.2,714.3c0-0.6,0.1-1.2,0.5-1.8c0.3-0.6,0.8-1.2,1.4-1.7s1.4-0.9,2.3-1.3c0.9-0.3,2-0.5,3.3-0.5
			c0.8,0,1.5,0,2.2,0.1c0.7,0.1,1.3,0.2,1.8,0.3c0.5,0.1,0.9,0.2,1.2,0.3c0.3,0.1,0.4,0.3,0.5,0.6c0.1,0.3,0,0.6-0.1,1
			c-0.2,0.5-0.3,1-0.5,1.4c-0.3-0.1-0.7-0.2-1.2-0.2s-1-0.2-1.6-0.2c-0.6-0.1-1.3-0.1-2.1-0.1c-0.9,0-1.6,0.1-2.2,0.3
			s-1,0.4-1.4,0.7c-0.3,0.3-0.6,0.6-0.7,0.9c-0.1,0.3-0.2,0.6-0.2,0.9v11.2c0,0.3-0.1,0.6-0.3,0.7c-0.2,0.2-0.5,0.2-0.9,0.2h-2.2
			L507.2,714.3L507.2,714.3z"/>
		<path class="st2" d="M553,710.7c0.7-0.3,1.5-0.6,2.4-0.8c0.9-0.2,1.8-0.4,2.9-0.6c1.1-0.2,2.3-0.2,3.7-0.2c1.6,0,3,0.2,4,0.7
			c1.1,0.5,1.9,1.1,2.6,2c0.6,0.9,1.1,1.8,1.3,3s0.4,2.3,0.4,3.6c0,1.2-0.1,2.4-0.3,3.5c-0.2,1.1-0.7,2.1-1.3,3s-1.5,1.5-2.6,2
			c-1.1,0.5-2.4,0.7-4,0.7c-0.9,0-1.8-0.1-2.9-0.3c-1-0.2-2-0.5-2.9-0.9v8.5c0,0.4-0.1,0.7-0.4,0.9c-0.3,0.2-0.6,0.2-1,0.2H553
			L553,710.7L553,710.7z M556.2,723.4c0.8,0.3,1.6,0.6,2.5,1c0.9,0.3,2,0.5,3.3,0.5c1.1,0,2-0.2,2.7-0.7c0.7-0.5,1.2-1,1.5-1.7
			s0.5-1.3,0.6-2s0.2-1.4,0.2-2.2c0-0.9-0.1-1.7-0.2-2.5s-0.3-1.5-0.7-2.1c-0.4-0.6-0.9-1.1-1.5-1.5c-0.7-0.4-1.6-0.6-2.7-0.6
			c-2.3,0-4.3,0.3-5.7,1L556.2,723.4L556.2,723.4z"/>
		<path class="st2" d="M592,708.7c3,0,5.2,0.8,6.5,2.4s2,3.9,2,7c0,1.5-0.2,2.8-0.4,3.9c-0.3,1.1-0.8,2.1-1.4,2.9
			c-0.7,0.8-1.5,1.4-2.6,1.8s-2.4,0.7-4,0.7c-3,0-5.2-0.8-6.5-2.4c-1.3-1.6-2-3.9-2-7c0-1.4,0.2-2.7,0.4-3.8s0.8-2.1,1.4-3
			s1.5-1.5,2.6-1.9C589,708.9,590.4,708.7,592,708.7z M592,724.8c1.1,0,2-0.2,2.7-0.5c0.7-0.3,1.2-0.7,1.6-1.3s0.7-1.3,0.8-2.1
			c0.1-0.8,0.2-1.8,0.2-2.9c0-0.9-0.1-1.8-0.2-2.7c-0.1-0.8-0.3-1.5-0.7-2.1c-0.4-0.6-0.9-1.1-1.6-1.4c-0.7-0.3-1.6-0.5-2.8-0.5
			c-1,0-1.9,0.1-2.6,0.4c-0.7,0.3-1.2,0.7-1.6,1.2c-0.4,0.5-0.7,1.2-0.8,2.1s-0.2,1.8-0.2,3c0,1,0,2,0.2,2.8
			c0.1,0.8,0.3,1.5,0.7,2.1c0.4,0.6,0.9,1,1.6,1.3C589.9,724.5,590.8,724.7,592,724.8z"/>
		<path class="st2" d="M617.8,712.2v9.7c0,1,0.3,1.7,0.8,2s1.3,0.5,2.6,0.5c0.4,0,0.8,0,1.4-0.1c0.5-0.1,0.9-0.1,1-0.2
			c0.2-0.1,0.4,0,0.5,0.1s0.2,0.3,0.2,0.6v1.9c-0.2,0.1-0.6,0.3-1.3,0.4c-0.7,0.2-1.6,0.2-2.6,0.2c-0.6,0-1.3-0.1-2-0.3
			c-0.7-0.2-1.3-0.5-1.8-0.9c-0.5-0.4-1-1-1.3-1.6c-0.4-0.7-0.5-1.5-0.5-2.5v-18.4l2.5-0.6c0.1,0,0.3-0.1,0.3,0
			c0.1,0,0.2,0.1,0.3,0.2c0.1,0.1,0.1,0.3,0.1,0.6v5.1h5.6v2.2c0,0.4-0.1,0.6-0.2,0.8s-0.3,0.2-0.6,0.2H617.8z"/>
		<path class="st2" d="M652.3,715c0,1-0.2,1.8-0.4,2.4c-0.3,0.7-0.7,1.2-1.2,1.6s-1.2,0.7-1.9,0.9s-1.6,0.3-2.5,0.3h-6.4
			c0.1,1.6,0.8,2.7,1.8,3.4s2.3,1,3.8,1c0.6,0,1.1,0,1.6-0.1c0.4-0.1,0.8-0.1,1.2-0.2c0.3-0.1,0.6-0.1,0.9-0.2s0.5-0.1,0.7-0.2
			c0.2-0.1,0.5-0.1,0.7,0c0.2,0.1,0.3,0.3,0.3,0.6v1.9c-0.5,0.2-1,0.4-1.6,0.6s-1.2,0.3-1.8,0.4s-1.4,0.2-2.1,0.2
			c-0.8,0-1.7-0.1-2.7-0.3c-1-0.2-2-0.6-2.9-1.2s-1.7-1.5-2.3-2.6c-0.6-1.1-0.9-2.6-0.9-4.5c0-2.2,0.3-4,1-5.4
			c0.6-1.3,1.4-2.3,2.3-3c0.9-0.7,1.8-1.2,2.8-1.4c1-0.2,1.8-0.3,2.5-0.3c0.7,0,1.5,0.1,2.3,0.3c0.8,0.2,1.6,0.6,2.3,1.1
			c0.7,0.5,1.3,1.2,1.8,2S652.3,713.8,652.3,715z M644.9,717.3c1.6,0,2.8-0.2,3.4-0.5c0.6-0.3,1-0.9,1-1.8c0-1.2-0.4-2.1-1.1-2.8
			s-1.8-1-3-1c-1,0-1.8,0.2-2.5,0.5c-0.7,0.4-1.2,0.8-1.6,1.4s-0.7,1.2-0.9,2c-0.2,0.7-0.3,1.4-0.3,2.1L644.9,717.3L644.9,717.3z"/>
		<path class="st2" d="M667.6,710.1c0.8-0.3,1.8-0.5,2.9-0.8c1.1-0.2,2.3-0.3,3.6-0.3c1.5,0,2.6,0.1,3.3,0.3s1.3,0.5,1.7,0.9
			c0.4,0.4,0.7,0.8,1,1.1c0.2,0.4,0.4,0.8,0.5,1.2c0.1,0.4,0.2,0.8,0.3,1.3s0.1,1,0.1,1.5v10.8c0,0.3-0.1,0.5-0.2,0.7
			c-0.1,0.2-0.3,0.3-0.6,0.3h-2.4v-12c0-0.8-0.1-1.4-0.3-1.8c-0.2-0.5-0.5-0.8-0.9-1.1s-0.8-0.4-1.4-0.5c-0.5-0.1-1.1-0.1-1.7-0.1
			c-0.8,0-1.6,0.1-2.6,0.3c-0.9,0.2-1.7,0.4-2.2,0.6v13.6c0,0.3-0.1,0.5-0.2,0.7c-0.2,0.2-0.4,0.3-0.8,0.3h-2.3v-16
			C666,710.7,666.8,710.4,667.6,710.1z"/>
		<path class="st2" d="M698.9,712.2v9.7c0,1,0.3,1.7,0.8,2s1.3,0.5,2.6,0.5c0.4,0,0.8,0,1.4-0.1c0.5-0.1,0.9-0.1,1-0.2
			c0.2-0.1,0.4,0,0.5,0.1s0.2,0.3,0.2,0.6v1.9c-0.2,0.1-0.6,0.3-1.3,0.4c-0.7,0.2-1.6,0.2-2.6,0.2c-0.6,0-1.3-0.1-2-0.3
			c-0.7-0.2-1.3-0.5-1.8-0.9c-0.5-0.4-1-1-1.3-1.6c-0.4-0.7-0.5-1.5-0.5-2.5v-18.4l2.5-0.6c0.1,0,0.3-0.1,0.3,0
			c0.1,0,0.2,0.1,0.3,0.2c0.1,0.1,0.1,0.3,0.1,0.6v5.1h5.6v2.2c0,0.4-0.1,0.6-0.2,0.8s-0.3,0.2-0.6,0.2H698.9z"/>
		<path class="st2" d="M722.3,704.3c0,0.6-0.2,1.1-0.6,1.5c-0.4,0.4-0.9,0.6-1.5,0.6c-0.5,0-1-0.2-1.5-0.6c-0.4-0.4-0.6-0.9-0.6-1.5
			s0.2-1.1,0.6-1.5s0.9-0.5,1.5-0.5c0.6,0,1.1,0.2,1.5,0.5C722.1,703.2,722.3,703.7,722.3,704.3z M723.7,724c0.2,0,0.4,0.1,0.5,0.2
			s0.2,0.3,0.2,0.6v2.3h-2.5c-0.4,0-0.7-0.1-1.1-0.2s-0.7-0.3-1-0.7s-0.6-0.7-0.8-1.2c-0.2-0.5-0.3-1.2-0.3-1.9V709h2.3
			c0.3,0,0.6,0,0.7,0.2c0.1,0.1,0.2,0.3,0.2,0.7V723c0,0.3,0.1,0.5,0.2,0.7c0.1,0.1,0.3,0.2,0.5,0.3s0.4,0.1,0.6,0.1
			S723.5,724,723.7,724z"/>
		<path class="st2" d="M744.4,708.7c1,0,2,0.1,3,0.3s1.7,0.5,2.5,1c0.7,0.5,1.3,1.1,1.7,1.8c0.4,0.8,0.6,1.8,0.6,2.9v11.1
			c-0.6,0.4-1.2,0.7-2,0.9c-0.7,0.3-1.6,0.5-2.5,0.7c-1,0.2-2.1,0.3-3.3,0.3c-1.2,0-2.2-0.1-3-0.3c-0.8-0.2-1.6-0.5-2.3-1
			s-1.3-1.1-1.7-1.9c-0.4-0.8-0.7-1.7-0.7-2.8c0-1.5,0.6-2.6,1.7-3.5c1.2-0.8,2.7-1.4,4.6-1.6c1.9-0.2,3.3-0.4,4.1-0.5
			c0.8-0.1,1.5-0.2,1.9-0.2v-1.7c0-0.3-0.1-0.6-0.2-0.9c-0.2-0.3-0.4-0.6-0.8-0.8c-0.4-0.2-0.8-0.5-1.4-0.6
			c-0.6-0.2-1.3-0.2-2.2-0.2c-1.1,0-2.1,0.1-3,0.3s-1.7,0.3-2.3,0.5c-0.6,0.2-0.9,0-0.9-0.5v-2.3c0.5-0.2,1.1-0.4,1.7-0.5
			c0.6-0.1,1.2-0.3,2-0.3C742.5,708.7,743.4,708.7,744.4,708.7z M748.9,719.1c-0.4,0-0.8,0.1-1.3,0.1s-1,0.1-1.5,0.2
			c-0.5,0.1-1.3,0.1-2.4,0.2c-1,0.1-2,0.3-2.8,0.6s-1.2,0.9-1.2,1.7s0.4,1.5,1.2,2s1.9,0.8,3.3,0.8c1.2,0,2.2-0.1,2.9-0.2
			s1.3-0.3,1.8-0.5L748.9,719.1L748.9,719.1z"/>
		<path class="st2" d="M773.2,727.1c-0.3,0.1-0.8,0.2-1.2,0.2s-1,0.1-1.5,0.1c-0.9,0-1.6-0.1-2.2-0.4s-1-0.6-1.3-1.1s-0.5-1-0.6-1.7
			c-0.1-0.7-0.2-1.4-0.2-2.1v-22.6h2.2c0.4,0,0.7,0.1,0.8,0.4s0.2,0.6,0.2,1v21.9c0,0.6,0.2,1.1,0.4,1.4c0.3,0.3,0.8,0.4,1.6,0.4
			c0.5,0,0.9,0,1.2-0.1c0.3-0.1,0.5-0.1,0.6-0.2l0.4,1.9C773.8,726.6,773.6,726.9,773.2,727.1z"/>
		<path class="st2" d="M814.3,708.7c3,0,5.2,0.8,6.5,2.4s2,3.9,2,7c0,1.5-0.2,2.8-0.4,3.9c-0.3,1.1-0.8,2.1-1.4,2.9
			c-0.7,0.8-1.5,1.4-2.6,1.8s-2.4,0.7-4,0.7c-3,0-5.2-0.8-6.5-2.4c-1.3-1.6-2-3.9-2-7c0-1.4,0.2-2.7,0.4-3.8s0.8-2.1,1.4-3
			s1.5-1.5,2.6-1.9C811.4,708.9,812.7,708.7,814.3,708.7z M814.3,724.8c1.1,0,2-0.2,2.7-0.5c0.7-0.3,1.2-0.7,1.6-1.3
			s0.7-1.3,0.8-2.1c0.1-0.8,0.2-1.8,0.2-2.9c0-0.9-0.1-1.8-0.2-2.7c-0.1-0.8-0.3-1.5-0.7-2.1c-0.4-0.6-0.9-1.1-1.6-1.4
			c-0.7-0.3-1.6-0.5-2.8-0.5c-1,0-1.9,0.1-2.6,0.4c-0.7,0.3-1.2,0.7-1.6,1.2c-0.4,0.5-0.7,1.2-0.8,2.1s-0.2,1.8-0.2,3
			c0,1,0,2,0.2,2.8c0.1,0.8,0.3,1.5,0.7,2.1c0.4,0.6,0.9,1,1.6,1.3C812.2,724.5,813.1,724.7,814.3,724.8z"/>
		<path class="st2" d="M838.4,710.1c0.8-0.3,1.8-0.5,2.9-0.8c1.1-0.2,2.3-0.3,3.6-0.3c1.5,0,2.6,0.1,3.3,0.3s1.3,0.5,1.7,0.9
			c0.4,0.4,0.7,0.8,1,1.1c0.2,0.4,0.4,0.8,0.5,1.2c0.1,0.4,0.2,0.8,0.3,1.3s0.1,1,0.1,1.5v10.8c0,0.3-0.1,0.5-0.2,0.7
			c-0.1,0.2-0.3,0.3-0.6,0.3h-2.4v-12c0-0.8-0.1-1.4-0.3-1.8c-0.2-0.5-0.5-0.8-0.9-1.1s-0.8-0.4-1.4-0.5c-0.5-0.1-1.1-0.1-1.7-0.1
			c-0.8,0-1.6,0.1-2.6,0.3c-0.9,0.2-1.7,0.4-2.2,0.6v13.6c0,0.3-0.1,0.5-0.2,0.7c-0.2,0.2-0.4,0.3-0.8,0.3h-2.3v-16
			C836.8,710.7,837.6,710.4,838.4,710.1z"/>
	</g>
	<g>
		<g>
			<path class="st2" d="M777.1,343.8c-50.5,0-75.2,39-75.2,77.8c0,39,24.8,78.1,75.2,78.1c49.7,0,74.8-39.1,74.8-78.1
				C851.9,382.8,826.8,343.8,777.1,343.8z M777.1,472.4c-30.6,0-45.8-25.1-45.8-50.3c0-25.5,15.2-50.8,45.8-50.8
				c30.2,0,45.6,25.3,45.6,50.8C822.7,447.2,807.3,472.4,777.1,472.4z"/>
			<path class="st2" d="M327.7,387.8c0,43.4-46.4,44-49.9,44h-21.4v65.1c0,1.5-1.3,2.8-3,2.8h-22.3c-1.6,0-3-1.2-3-2.8v-92.4h49.7
				c3.7,0,21.8-0.4,21.8-16.6s-18.5-17.2-21.8-17.2h-49.7v-25.5c0-0.8,0.9-1.7,1.9-1.7h47.8C283.7,343.5,327.7,344.4,327.7,387.8z"
				/>
			<path class="st2" d="M458.3,499.5h-26.4c-0.6,0-1.7-0.5-1.9-1.1l-35-66.6h-15.9V498c0,0.7-0.9,1.7-2,1.7h-24.2
				c-0.9,0-1.9-0.9-1.9-1.7v-93.3h28.1h21.6c6.1,0,21.8-0.7,21.8-17s-17.4-17.2-21.8-17.2h-21.6h-28.1v-25.1c0-0.7,0.9-1.7,1.9-1.7
				h47.8c8.3,0,49.9,0.4,49.9,44c0,22.5-12.4,34.3-27.1,39.7c9.2,20.9,27.2,49.2,36.5,69.7C460.5,498.4,459.8,499.5,458.3,499.5z"/>
			<path class="st1" d="M716.3,469.7c-68.6,0-169.5,0-169.8,0c-29,0-43.4-23.8-43.4-47.6c0-24.2,14.4-48.2,43.4-48.2
				c0.5,0,100.7,0,169.5,0c8-11.6,19.5-21,34.4-26c-63,0-203.1,0-203.9,0c-47.8,0-71.3,36.9-71.3,73.7c0,36.9,23.4,74,71.3,74
				c0.7,0,141.9,0,204.3,0C735.9,490.6,724.4,481.3,716.3,469.7z"/>
		</g>
		<path class="st2" d="M309.9,651.7v24c0,0.7-0.7,1.7-2,1.7h-77.7c-1.1,0-2-0.9-2-1.7V655c0-0.1,0-0.2,0-0.4V531.1
			c0-1.1,0.9-2,1.7-2h23.3c1.4,0,2.5,1.1,2.5,2.5v118.3h52.3C309.2,649.8,309.9,650.8,309.9,651.7z"/>
		<path class="st2" d="M457.8,677.4h-25.5c-0.5,0-1.5-0.4-1.7-1.1l-28-79c-0.4-1.1-2-1.1-2.4,0l-27.6,79c-0.2,0.7-1.1,1.1-1.9,1.1
			h-25.3c-1.7,0-2.4-1.1-1.9-2.2l56-144.4c0.5-1.5,3.1-1.5,3.7,0l56.1,144.4C460.1,676.2,459.1,677.4,457.8,677.4z"/>
		<path class="st2" d="M731.1,650.2c3.1,0,5.5,2.5,5.5,5.5v19.9c0,0.7-0.7,1.7-2,1.7h-24c-36.8,0-86.6-10.7-86.6-73.9
			c0-65.5,50.4-73.9,86.6-73.9h24c1.3,0,2,0.9,2,1.7v19.8c0,3.1-2.5,5.5-5.5,5.5h-22.7v0c-32.1-1.7-56,11.8-56,46.9
			c0,45.6,38,47.5,56,46.7L731.1,650.2L731.1,650.2z"/>
		<path class="st2" d="M851.3,674.2c0,1.8-0.7,3.2-2.4,3.2h-86c-1.1,0-2-0.9-2-1.7V531c0-0.7,0.9-1.7,2-1.7h85.3
			c1.8,0,3.2,1.4,3.2,3.2v20.3c0,1.8-1.4,3.2-3.2,3.2h-55.9c-1.8,0-3.2,1.4-3.2,3.2v27.9c0,1.8,1.4,3.2,3.2,3.2h57
			c1.1,0,2,0.7,2,1.7v22.5c0,0.7-0.9,1.7-2,1.7h-57c-1.8,0-3.2,1.4-3.2,3.2l-0.1,27.9c0,1.8,1.4,3.2,3.2,3.2h56.6
			c1.8,0,2.4,1.4,2.4,3.2L851.3,674.2z"/>
		<g>
			<path class="st2" d="M599.2,531.3v144.6c0,0.7-0.7,1.7-2,1.7h-24.4c-0.4,0-1.5-0.2-1.7-0.5l-68.1-97.5v62.5h-28.3V531.3
				c0-0.7,0.9-1.7,1.9-1.7h24.6c0.4,0,1.5,0.2,1.7,0.6l68.2,97.5v-96.4c0-0.7,0.9-1.7,2.2-1.7h23.9
				C598.5,529.6,599.2,530.6,599.2,531.3z"/>
		</g>
	</g>
</g>
</svg>
