<svg width="64" height="64" viewBox="0 0 64 64" fill="none" xmlns="http://www.w3.org/2000/svg">
<path d="M32 64C49.6731 64 64 49.6731 64 32C64 14.3269 49.6731 0 32 0C14.3269 0 0 14.3269 0 32C0 49.6731 14.3269 64 32 64Z" fill="#F2F2F2"/>
<path d="M47.5746 18.9994C47.4521 18.6428 47.3072 18.5462 47.0769 18.457C46.5792 18.2676 45.7323 18.5536 45.7323 18.5536C45.7323 18.5536 15.8235 29.3032 14.1186 30.4956C13.7509 30.7519 13.6283 30.9005 13.5651 31.075C13.268 31.9219 14.1892 32.2971 14.1892 32.2971L21.8967 34.808C21.8967 34.808 22.1827 34.8489 22.2867 34.7858C24.0399 33.6789 39.9303 23.6461 40.8478 23.3081C40.9926 23.2635 41.1004 23.3156 41.0707 23.4159C40.7029 24.7048 26.9037 36.9699 26.9037 36.9699C26.9037 36.9699 26.8518 37.033 26.8183 37.111L26.7997 37.0999L26.0791 44.7442C26.0791 44.7442 25.7783 47.088 28.1221 44.7442C29.775 43.0913 31.3722 41.7095 32.1746 41.0372C34.823 42.8684 37.6794 44.8928 38.9089 45.9514C39.5255 46.4826 40.0455 46.568 40.4689 46.5531C41.639 46.5086 41.9621 45.2271 41.9621 45.2271C41.9621 45.2271 47.4112 23.2933 47.5932 20.3552C47.6118 20.0691 47.6341 19.8834 47.6378 19.6865C47.6452 19.4079 47.6192 19.1294 47.5746 18.9994Z" fill="#161616"/>
</svg>
