<svg width="64" height="64" viewBox="0 0 64 64" fill="none" xmlns="http://www.w3.org/2000/svg">
<path d="M32 64C49.6731 64 64 49.6731 64 32C64 14.3269 49.6731 0 32 0C14.3269 0 0 14.3269 0 32C0 49.6731 14.3269 64 32 64Z" fill="#F2F2F2"/>
<path fill-rule="evenodd" clip-rule="evenodd" d="M47.3927 17.001C43.5594 13.164 38.4632 11.0505 33.0327 11.0505C21.8447 11.0505 12.7369 20.1546 12.7332 31.3425C12.7332 34.9195 13.6655 38.4111 15.4447 41.4866L12.566 52.0023L23.3268 49.1793C26.2909 50.7951 29.6302 51.6494 33.0289 51.6494H33.0364C44.2243 51.6494 53.3321 42.5453 53.3358 31.3574C53.3358 25.9343 51.226 20.8343 47.3927 17.001ZM33.0327 48.2209H33.0252C29.9979 48.2209 27.0264 47.4075 24.4374 45.8697L23.8208 45.5057L17.4357 47.1809L19.1406 40.9555L18.7395 40.3166C17.0494 37.6311 16.1579 34.5258 16.1616 31.3388C16.1653 22.0378 23.7354 14.4715 33.0401 14.4715C37.5457 14.4715 41.7839 16.2284 44.9672 19.4191C48.1542 22.6061 49.9074 26.8443 49.9037 31.3537C49.9037 40.6546 42.3336 48.2209 33.0327 48.2209ZM42.2891 35.5918C41.7802 35.3392 39.2878 34.1098 38.8235 33.9426C38.3592 33.7718 38.0212 33.69 37.6832 34.1952C37.3451 34.7041 36.3719 35.8444 36.0785 36.1824C35.7813 36.5205 35.4879 36.565 34.979 36.3087C34.4702 36.0561 32.8358 35.5212 30.9006 33.7903C29.3925 32.4457 28.3747 30.7853 28.0776 30.2765C27.7804 29.7676 28.0479 29.4927 28.3004 29.2401C28.527 29.0135 28.8093 28.6495 29.0619 28.3524C29.3145 28.0552 29.3999 27.8435 29.5708 27.5055C29.7417 27.1675 29.6562 26.8703 29.5299 26.6177C29.4036 26.3652 28.3896 23.869 27.9661 22.8513C27.5538 21.8632 27.1378 21.9969 26.8258 21.9821C26.5287 21.9672 26.1906 21.9635 25.8526 21.9635C25.5146 21.9635 24.9649 22.0898 24.5006 22.5987C24.0363 23.1076 22.7251 24.3333 22.7251 26.8294C22.7251 29.3255 24.5414 31.7362 24.7977 32.0742C25.0503 32.4123 28.3747 37.5345 33.4635 39.7297C34.6744 40.2535 35.6179 40.5655 36.3534 40.7995C37.568 41.1858 38.6749 41.1301 39.5478 41.0001C40.521 40.8552 42.5491 39.7743 42.9725 38.5894C43.396 37.4045 43.396 36.3904 43.2697 36.1787C43.136 35.9707 42.7979 35.8444 42.2891 35.5918Z" fill="#161616"/>
</svg>
